<svg width="120" height="120" viewBox="0 0 65 65" fill="none" xmlns="http://www.w3.org/2000/svg">
<path d="M65 65H0V0H65V65Z" fill="#4BB649"/>
<path d="M7.78998 40.74C7.78998 39.85 8.07001 39.14 8.64001 38.59C9.21001 38.02 9.94001 37.74 10.82 37.74C11.71 37.74 12.44 38.02 13 38.59C13.57 39.13 13.85 39.85 13.85 40.74C13.85 41.63 13.57 42.36 13 42.92C12.43 43.46 11.7 43.73 10.82 43.73C9.93001 43.73 9.20001 43.46 8.64001 42.92C8.07001 42.35 7.78998 41.63 7.78998 40.74ZM7.78998 25.63C7.78998 24.74 8.07001 24.03 8.64001 23.48C9.21001 22.91 9.94001 22.63 10.82 22.63C11.71 22.63 12.44 22.91 13 23.48C13.57 24.02 13.85 24.74 13.85 25.63C13.85 26.52 13.57 27.25 13 27.81C12.43 28.35 11.7 28.62 10.82 28.62C9.93001 28.62 9.20001 28.35 8.64001 27.81C8.07001 27.25 7.78998 26.52 7.78998 25.63Z" fill="white"/>
<path d="M31.48 34.11C30.71 34.11 30.05 34 29.48 33.78C28.91 33.53 28.41 33.24 27.96 32.89C27.54 32.52 27.16 32.12 26.81 31.71C26.49 31.29 26.17 30.91 25.85 30.56C25.55 30.19 25.23 29.89 24.89 29.67C24.57 29.42 24.2 29.3 23.78 29.3C22.62 29.3 22.04 29.98 22.04 31.34V33.93H18.89V31.34C18.89 29.88 19.32 28.72 20.19 27.86C21.08 26.97 22.25 26.53 23.71 26.53C24.48 26.53 25.14 26.65 25.71 26.9C26.28 27.12 26.77 27.42 27.19 27.79C27.63 28.14 28.02 28.52 28.34 28.94C28.69 29.36 29.01 29.75 29.3 30.12C29.62 30.47 29.94 30.76 30.26 31.01C30.61 31.23 30.99 31.34 31.41 31.34C32.57 31.34 33.15 30.66 33.15 29.3V26.71H36.3V29.3C36.3 30.73 35.86 31.89 34.97 32.78C34.1 33.67 32.94 34.11 31.48 34.11Z" fill="white"/>
<path d="M53.15 35.96L51.78 43.36H49.19L50.56 35.96H44.64L43.27 43.36H40.68L42.05 35.96H38.9V33.55H42.49L43.82 26.52H40.15V24.11H44.26L45.63 16.71H48.22L46.85 24.11H52.77L54.14 16.71H56.73L55.36 24.11H58.51V26.52H54.92L53.59 33.55H57.22V35.96H53.15ZM51.01 33.56L52.34 26.53H46.42L45.09 33.56H51.01Z" fill="white"/>
</svg>
