<svg width="120" height="120" viewBox="0 0 120 120" fill="none" xmlns="http://www.w3.org/2000/svg">
<g clip-path="url(#clip)">
<path d="M120 120H0V0H120V120Z" fill="#4BB649"/>
<path d="M14.3815 75.2123C14.3815 73.5692 14.8985 72.2585 15.9508 71.2431C17.0031 70.1908 18.3508 69.6739 19.9754 69.6739C21.6185 69.6739 22.9662 70.1908 24 71.2431C25.0523 72.24 25.5692 73.5692 25.5692 75.2123C25.5692 76.8554 25.0523 78.2031 24 79.2369C22.9477 80.2338 21.6 80.7323 19.9754 80.7323C18.3323 80.7323 16.9846 80.2338 15.9508 79.2369C14.8985 78.1846 14.3815 76.8554 14.3815 75.2123ZM14.3815 47.3169C14.3815 45.6738 14.8985 44.3631 15.9508 43.3477C17.0031 42.2954 18.3508 41.7785 19.9754 41.7785C21.6185 41.7785 22.9662 42.2954 24 43.3477C25.0523 44.3446 25.5692 45.6738 25.5692 47.3169C25.5692 48.96 25.0523 50.3077 24 51.3415C22.9477 52.3385 21.6 52.8369 19.9754 52.8369C18.3323 52.8369 16.9846 52.3385 15.9508 51.3415C14.8985 50.3077 14.3815 48.96 14.3815 47.3169Z" fill="white"/>
<path d="M58.1169 62.9723C56.6954 62.9723 55.4769 62.7692 54.4246 62.3631C53.3723 61.9015 52.4492 61.3662 51.6185 60.72C50.8431 60.0369 50.1415 59.2985 49.4954 58.5415C48.9046 57.7662 48.3138 57.0646 47.7231 56.4185C47.1692 55.7354 46.5785 55.1815 45.9508 54.7754C45.36 54.3138 44.6769 54.0923 43.9015 54.0923C41.76 54.0923 40.6892 55.3477 40.6892 57.8585V62.64H34.8738V57.8585C34.8738 55.1631 35.6677 53.0215 37.2738 51.4338C38.9169 49.7908 41.0769 48.9785 43.7723 48.9785C45.1938 48.9785 46.4123 49.2 47.4646 49.6615C48.5169 50.0677 49.4215 50.6215 50.1969 51.3046C51.0092 51.9508 51.7292 52.6523 52.32 53.4277C52.9661 54.2031 53.5569 54.9231 54.0923 55.6062C54.6831 56.2523 55.2738 56.7877 55.8646 57.2492C56.5108 57.6554 57.2123 57.8585 57.9877 57.8585C60.1292 57.8585 61.2 56.6031 61.2 54.0923V49.3108H67.0154V54.0923C67.0154 56.7323 66.2031 58.8738 64.56 60.5169C62.9538 62.16 60.8123 62.9723 58.1169 62.9723Z" fill="white"/>
<path d="M98.1231 66.3877L95.5938 80.0492H90.8123L93.3415 66.3877H82.4123L79.8831 80.0492H75.1015L77.6308 66.3877H71.8154V61.9385H78.4431L80.8985 48.96H74.1231V44.5108H81.7108L84.24 30.8492H89.0215L86.4923 44.5108H97.4215L99.9508 30.8492H104.732L102.203 44.5108H108.018V48.96H101.391L98.9354 61.9385H105.637V66.3877H98.1231ZM94.1723 61.9569L96.6277 48.9785H85.6985L83.2431 61.9569H94.1723Z" fill="white"/>
</g>
<defs>
<clipPath id="clip">
<rect width="120" height="120" rx="6" fill="white"/>
</clipPath>
</defs>
</svg>
