<svg width="214" height="48" viewBox="0 0 214 48" fill="none" xmlns="http://www.w3.org/2000/svg">
    <path d="M132.25 0H130.97H1V47.56H130.88H132.23H213.14V0H132.25ZM131.79 46.56H2V1H131.76L151.09 25.27L131.79 46.56Z" fill="#51E14C"/>
    <path d="M2 46.56H131.79L151.1 25.27L131.77 1H2V46.56Z" fill="#080D1B"/>
    <path d="M155.91 32.0101C155.91 31.1901 156.17 30.5301 156.69 30.0301C157.21 29.5101 157.88 29.2501 158.7 29.2501C159.52 29.2501 160.19 29.5101 160.71 30.0301C161.23 30.5301 161.49 31.1901 161.49 32.0101C161.49 32.8301 161.23 33.5001 160.71 34.0201C160.19 34.5201 159.52 34.7701 158.7 34.7701C157.88 34.7701 157.21 34.5201 156.69 34.0201C156.17 33.5001 155.91 32.8301 155.91 32.0101ZM155.91 18.1001C155.91 17.2801 156.17 16.6201 156.69 16.1201C157.21 15.6001 157.88 15.3401 158.7 15.3401C159.52 15.3401 160.19 15.6001 160.71 16.1201C161.23 16.6201 161.49 17.2801 161.49 18.1001C161.49 18.9201 161.23 19.5901 160.71 20.1101C160.19 20.6101 159.52 20.8601 158.7 20.8601C157.88 20.8601 157.21 20.6101 156.69 20.1101C156.17 19.5901 155.91 18.9201 155.91 18.1001Z" fill="black"/>
    <path d="M177.74 25.9099C177.04 25.9099 176.42 25.8099 175.9 25.5999C175.38 25.3699 174.91 25.0999 174.5 24.7799C174.11 24.4399 173.76 24.0799 173.44 23.6899C173.14 23.2999 172.85 22.9499 172.55 22.6299C172.28 22.2899 171.98 22.0199 171.66 21.8099C171.36 21.5799 171.02 21.4699 170.64 21.4699C169.57 21.4699 169.04 22.0999 169.04 23.3499V25.7399H166.14V23.3499C166.14 22.0099 166.54 20.9399 167.33 20.1399C168.15 19.3199 169.23 18.9099 170.57 18.9099C171.28 18.9099 171.89 19.0199 172.41 19.2499C172.93 19.4499 173.39 19.7299 173.77 20.0699C174.18 20.3899 174.53 20.7399 174.83 21.1299C175.15 21.5199 175.44 21.8799 175.72 22.2199C176.02 22.5399 176.31 22.8099 176.61 23.0399C176.93 23.2399 177.28 23.3499 177.67 23.3499C178.74 23.3499 179.27 22.7199 179.27 21.4699V19.0799H182.17V21.4699C182.17 22.7899 181.76 23.8599 180.94 24.6799C180.15 25.4999 179.09 25.9099 177.74 25.9099Z" fill="black"/>
    <path d="M197.71 27.61L196.45 34.43H194.06L195.32 27.61H189.86L188.6 34.43H186.21L187.47 27.61H184.57V25.39H187.88L189.11 18.91H185.73V16.69H189.52L190.78 9.87H193.17L191.91 16.69H197.37L198.63 9.87H201.02L199.76 16.69H202.66V18.91H199.35L198.12 25.39H201.46V27.61H197.71ZM195.73 25.4L196.96 18.92H191.5L190.27 25.4H195.73Z" fill="black"/>
    <path d="M24.4501 34.67C23.2201 34.67 22.1101 34.5 21.1101 34.16C20.1101 33.82 19.2601 33.33 18.5501 32.69C17.8501 32.05 17.3001 31.29 16.9101 30.4C16.5201 29.49 16.3301 28.48 16.3301 27.36V22.55C16.3301 21.44 16.5201 20.44 16.9101 19.55C17.3001 18.64 17.8401 17.87 18.5501 17.23C19.2501 16.59 20.1101 16.1 21.1101 15.76C22.1101 15.4 23.2201 15.21 24.4501 15.21C25.5401 15.21 26.5501 15.37 27.4901 15.69C28.4201 15.99 29.2401 16.43 29.9501 17.02C30.6501 17.59 31.2301 18.28 31.6901 19.1C32.1701 19.9 32.4901 20.81 32.6501 21.83H28.3901C28.2301 20.97 27.8001 20.27 27.0901 19.75C26.3901 19.2 25.5101 18.93 24.4601 18.93C23.2501 18.93 22.3101 19.25 21.6301 19.89C20.9501 20.53 20.6101 21.41 20.6101 22.55V27.36C20.6101 28.47 20.9401 29.35 21.6001 29.99C22.2801 30.63 23.2401 30.95 24.4701 30.95C25.4901 30.95 26.3601 30.69 27.0601 30.17C27.7901 29.62 28.2301 28.92 28.3901 28.06H32.6501C32.4901 29.08 32.1701 30 31.6901 30.82C31.2401 31.62 30.6401 32.31 29.9201 32.9C29.2201 33.47 28.4001 33.91 27.4601 34.23C26.5401 34.52 25.5401 34.67 24.4501 34.67Z" fill="white"/>
    <path d="M40.8098 27.23C40.8098 28.37 41.1498 29.27 41.8298 29.92C42.5298 30.58 43.4898 30.91 44.6998 30.91C45.9098 30.91 46.8498 30.58 47.5298 29.92C48.2298 29.26 48.5898 28.36 48.5898 27.23V22.62C48.5898 21.48 48.2398 20.58 47.5298 19.93C46.8498 19.27 45.8998 18.94 44.6998 18.94C43.5198 18.94 42.5698 19.27 41.8698 19.93C41.1698 20.59 40.8098 21.49 40.8098 22.62V27.23ZM36.5498 22.63C36.5498 21.52 36.7398 20.5 37.1298 19.59C37.5198 18.68 38.0598 17.91 38.7698 17.27C39.4998 16.61 40.3598 16.11 41.3598 15.77C42.3598 15.41 43.4698 15.22 44.6998 15.22C45.9298 15.22 47.0398 15.4 48.0398 15.77C49.0398 16.11 49.8898 16.61 50.5998 17.27C51.3298 17.91 51.8798 18.68 52.2698 19.59C52.6598 20.5 52.8498 21.51 52.8498 22.63V27.24C52.8498 28.35 52.6598 29.38 52.2698 30.31C51.8798 31.22 51.3398 32 50.6298 32.66C49.9298 33.3 49.0598 33.8 48.0398 34.16C47.0398 34.5 45.9298 34.67 44.6998 34.67C43.4698 34.67 42.3598 34.49 41.3598 34.12C40.3598 33.75 39.4998 33.26 38.7698 32.62C38.0698 31.96 37.5198 31.18 37.1298 30.27C36.7398 29.36 36.5498 28.35 36.5498 27.23V22.63Z" fill="white"/>
    <path d="M58.1602 15.57H62.1902V18.81H62.5002C62.7302 17.67 63.3002 16.8 64.2102 16.18C65.1202 15.54 66.2802 15.22 67.6902 15.22C69.7102 15.22 71.2902 15.85 72.4302 17.1C73.5702 18.35 74.1402 20.08 74.1402 22.28V23.64H69.6702V22.65C69.6702 21.44 69.3402 20.51 68.6802 19.85C68.0202 19.17 67.1102 18.83 65.9502 18.83C64.8602 18.83 63.9902 19.17 63.3602 19.85C62.7502 20.53 62.4402 21.46 62.4402 22.65V34.32H58.1802V15.57H58.1602Z" fill="white"/>
    <path d="M81.72 27.23C81.72 28.37 82.06 29.27 82.74 29.92C83.44 30.58 84.4 30.91 85.61 30.91C86.82 30.91 87.76 30.58 88.44 29.92C89.14 29.26 89.5 28.36 89.5 27.23V22.62C89.5 21.48 89.15 20.58 88.44 19.93C87.76 19.27 86.81 18.94 85.61 18.94C84.43 18.94 83.48 19.27 82.78 19.93C82.08 20.59 81.72 21.49 81.72 22.62V27.23ZM77.46 22.63C77.46 21.52 77.65 20.5 78.04 19.59C78.43 18.68 78.97 17.91 79.68 17.27C80.41 16.61 81.27 16.11 82.27 15.77C83.27 15.41 84.38 15.22 85.61 15.22C86.84 15.22 87.95 15.4 88.95 15.77C89.95 16.11 90.8 16.61 91.51 17.27C92.24 17.91 92.79 18.68 93.18 19.59C93.57 20.5 93.76 21.51 93.76 22.63V27.24C93.76 28.35 93.57 29.38 93.18 30.31C92.79 31.22 92.25 32 91.54 32.66C90.84 33.3 89.97 33.8 88.95 34.16C87.95 34.5 86.84 34.67 85.61 34.67C84.38 34.67 83.27 34.49 82.27 34.12C81.27 33.76 80.41 33.26 79.68 32.62C78.98 31.96 78.43 31.18 78.04 30.27C77.65 29.36 77.46 28.35 77.46 27.23V22.63Z" fill="white"/>
    <path d="M102.17 27.23C102.17 28.37 102.51 29.27 103.19 29.92C103.89 30.58 104.85 30.91 106.06 30.91C107.27 30.91 108.21 30.58 108.89 29.92C109.59 29.26 109.95 28.36 109.95 27.23V22.62C109.95 21.48 109.6 20.58 108.89 19.93C108.21 19.27 107.26 18.94 106.06 18.94C104.88 18.94 103.93 19.27 103.23 19.93C102.53 20.59 102.17 21.49 102.17 22.62V27.23ZM97.9102 22.63C97.9102 21.52 98.1002 20.5 98.4902 19.59C98.8802 18.68 99.4201 17.91 100.13 17.27C100.86 16.61 101.72 16.11 102.72 15.77C103.72 15.41 104.83 15.22 106.06 15.22C107.29 15.22 108.4 15.4 109.4 15.77C110.4 16.11 111.25 16.61 111.96 17.27C112.69 17.91 113.24 18.68 113.63 19.59C114.02 20.5 114.21 21.51 114.21 22.63V27.24C114.21 28.35 114.02 29.38 113.63 30.31C113.24 31.22 112.7 32 111.99 32.66C111.29 33.3 110.42 33.8 109.4 34.16C108.4 34.5 107.29 34.67 106.06 34.67C104.83 34.67 103.72 34.49 102.72 34.12C101.72 33.76 100.86 33.26 100.13 32.62C99.4301 31.96 98.8802 31.18 98.4902 30.27C98.1002 29.36 97.9102 28.35 97.9102 27.23V22.63Z" fill="white"/>
    <path d="M117.82 15.57H123V9.77002H127.26V15.57H134.39V19.42H127.26V28.53C127.26 29.12 127.43 29.6 127.77 29.96C128.13 30.3 128.63 30.47 129.27 30.47H134.05V34.32H128.97C127.13 34.32 125.67 33.8 124.6 32.75C123.53 31.7 123 30.29 123 28.52V19.41H117.82V15.57Z" fill="white"/>
    <rect x="1.5" y="1.5" width="210" height="45" stroke="#51E14C" stroke-width="3"/>
</svg>
