<svg width="170" height="38" viewBox="0 0 170 38" fill="none" xmlns="http://www.w3.org/2000/svg">
<g clip-path="url(#clip0_1055_16)">
<path d="M104.698 0H103.685H0.791748V37.6517H103.613H104.682H168.736V0H104.698ZM104.334 36.86H1.58341V0.791667H104.31L119.613 20.0054L104.334 36.86Z" fill="#51E14C"/>
<path d="M1.58325 36.8593H104.334L119.621 20.0048L104.318 0.791016H1.58325V36.8593Z" fill="#080D1B"/>
<path d="M126.429 26.3416C126.429 25.6924 126.635 25.1699 127.046 24.7741C127.458 24.3624 127.988 24.1566 128.637 24.1566C129.287 24.1566 129.817 24.3624 130.229 24.7741C130.64 25.1699 130.846 25.6924 130.846 26.3416C130.846 26.9908 130.64 27.5212 130.229 27.9329C129.817 28.3287 129.287 28.5266 128.637 28.5266C127.988 28.5266 127.458 28.3287 127.046 27.9329C126.635 27.5212 126.429 26.9908 126.429 26.3416ZM126.429 15.3295C126.429 14.6804 126.635 14.1579 127.046 13.762C127.458 13.3504 127.988 13.1445 128.637 13.1445C129.287 13.1445 129.817 13.3504 130.229 13.762C130.64 14.1579 130.846 14.6804 130.846 15.3295C130.846 15.9787 130.64 16.5091 130.229 16.9208C129.817 17.3166 129.287 17.5145 128.637 17.5145C127.988 17.5145 127.458 17.3166 127.046 16.9208C126.635 16.5091 126.429 15.9787 126.429 15.3295Z" fill="black"/>
<path d="M143.711 21.5124C143.157 21.5124 142.666 21.4332 142.254 21.267C141.842 21.0849 141.47 20.8711 141.146 20.6178C140.837 20.3486 140.56 20.0636 140.307 19.7549C140.069 19.4461 139.84 19.169 139.602 18.9157C139.388 18.6465 139.151 18.4328 138.897 18.2665C138.66 18.0845 138.391 17.9974 138.09 17.9974C137.243 17.9974 136.823 18.4961 136.823 19.4857V21.3778H134.527V19.4857C134.527 18.4249 134.844 17.5778 135.47 16.9445C136.119 16.2953 136.974 15.9707 138.035 15.9707C138.597 15.9707 139.08 16.0578 139.491 16.2399C139.903 16.3982 140.267 16.6199 140.568 16.889C140.892 17.1424 141.17 17.4195 141.407 17.7282C141.66 18.037 141.89 18.322 142.112 18.5911C142.349 18.8445 142.579 19.0582 142.816 19.2403C143.07 19.3986 143.347 19.4857 143.655 19.4857C144.502 19.4857 144.922 18.987 144.922 17.9974V16.1053H147.218V17.9974C147.218 19.0424 146.893 19.8895 146.244 20.5386C145.619 21.1878 144.78 21.5124 143.711 21.5124Z" fill="black"/>
<path d="M159.52 22.8586L158.523 28.2578H156.631L157.628 22.8586H153.306L152.308 28.2578H150.416L151.414 22.8586H149.118V21.1011H151.738L152.712 15.9711H150.036V14.2136H153.037L154.034 8.81445H155.926L154.929 14.2136H159.251L160.249 8.81445H162.141L161.143 14.2136H163.439V15.9711H160.819L159.845 21.1011H162.489V22.8586H159.52ZM157.953 21.109L158.927 15.979H154.604L153.63 21.109H157.953Z" fill="black"/>
<path d="M16.3563 24.4468C15.3826 24.4468 14.5038 24.3123 13.7121 24.0431C12.9205 23.7739 12.2476 23.386 11.6855 22.8793C11.1313 22.3727 10.6959 21.771 10.3871 21.0664C10.0784 20.346 9.92798 19.5464 9.92798 18.6598V14.8518C9.92798 13.9731 10.0784 13.1814 10.3871 12.4768C10.6959 11.7564 11.1234 11.1468 11.6855 10.6402C12.2396 10.1335 12.9205 9.7456 13.7121 9.47643C14.5038 9.19143 15.3826 9.04102 16.3563 9.04102C17.2192 9.04102 18.0188 9.16768 18.763 9.42102C19.4992 9.65852 20.1484 10.0068 20.7105 10.4739C21.2646 10.9252 21.7238 11.4714 22.088 12.1206C22.468 12.7539 22.7213 13.4743 22.848 14.2818H19.4755C19.3488 13.601 19.0084 13.0468 18.4463 12.6352C17.8921 12.1998 17.1955 11.986 16.3642 11.986C15.4063 11.986 14.6621 12.2393 14.1238 12.746C13.5855 13.2527 13.3163 13.9493 13.3163 14.8518V18.6598C13.3163 19.5385 13.5776 20.2352 14.1001 20.7418C14.6384 21.2485 15.3984 21.5018 16.3721 21.5018C17.1796 21.5018 17.8684 21.296 18.4226 20.8843C19.0005 20.4489 19.3488 19.8948 19.4755 19.2139H22.848C22.7213 20.0214 22.468 20.7498 22.088 21.3989C21.7317 22.0323 21.2567 22.5785 20.6867 23.0456C20.1326 23.4969 19.4834 23.8452 18.7392 24.0985C18.0109 24.3281 17.2192 24.4468 16.3563 24.4468Z" fill="white"/>
<path d="M29.3078 18.5567C29.3078 19.4592 29.577 20.1717 30.1153 20.6863C30.6695 21.2088 31.4295 21.4701 32.3874 21.4701C33.3453 21.4701 34.0895 21.2088 34.6278 20.6863C35.182 20.1638 35.467 19.4513 35.467 18.5567V14.9072C35.467 14.0047 35.1899 13.2922 34.6278 12.7776C34.0895 12.2551 33.3374 11.9938 32.3874 11.9938C31.4532 11.9938 30.7011 12.2551 30.147 12.7776C29.5928 13.3001 29.3078 14.0126 29.3078 14.9072V18.5567ZM25.9353 14.9151C25.9353 14.0363 26.0857 13.2288 26.3945 12.5084C26.7032 11.788 27.1307 11.1784 27.6928 10.6717C28.2707 10.1492 28.9516 9.75341 29.7432 9.48424C30.5349 9.19924 31.4136 9.04883 32.3874 9.04883C33.3611 9.04883 34.2399 9.19133 35.0316 9.48424C35.8232 9.75341 36.4961 10.1492 37.0582 10.6717C37.6361 11.1784 38.0716 11.788 38.3803 12.5084C38.6891 13.2288 38.8395 14.0284 38.8395 14.9151V18.5647C38.8395 19.4434 38.6891 20.2588 38.3803 20.9951C38.0716 21.7155 37.6441 22.333 37.082 22.8555C36.5278 23.3622 35.8391 23.758 35.0316 24.043C34.2399 24.3122 33.3611 24.4467 32.3874 24.4467C31.4136 24.4467 30.5349 24.3042 29.7432 24.0113C28.9516 23.7184 28.2707 23.3305 27.6928 22.8238C27.1386 22.3013 26.7032 21.6838 26.3945 20.9634C26.0857 20.243 25.9353 19.4434 25.9353 18.5567V14.9151Z" fill="white"/>
<path d="M43.0435 9.32591H46.2339V11.8909H46.4793C46.6614 10.9884 47.1126 10.2997 47.833 9.80883C48.5535 9.30216 49.4718 9.04883 50.588 9.04883C52.1872 9.04883 53.438 9.54758 54.3405 10.5372C55.243 11.5267 55.6943 12.8963 55.6943 14.638V15.7147H52.1555V14.9309C52.1555 13.973 51.8943 13.2367 51.3718 12.7142C50.8493 12.1759 50.1289 11.9067 49.2105 11.9067C48.3476 11.9067 47.6589 12.1759 47.1601 12.7142C46.6772 13.2526 46.4318 13.9888 46.4318 14.9309V24.1697H43.0593V9.32591H43.0435Z" fill="white"/>
<path d="M61.695 18.5567C61.695 19.4592 61.9642 20.1717 62.5025 20.6863C63.0567 21.2088 63.8167 21.4701 64.7746 21.4701C65.7325 21.4701 66.4767 21.2088 67.015 20.6863C67.5692 20.1638 67.8542 19.4513 67.8542 18.5567V14.9072C67.8542 14.0047 67.5771 13.2922 67.015 12.7776C66.4767 12.2551 65.7246 11.9938 64.7746 11.9938C63.8404 11.9938 63.0883 12.2551 62.5342 12.7776C61.98 13.3001 61.695 14.0126 61.695 14.9072V18.5567ZM58.3225 14.9151C58.3225 14.0363 58.4729 13.2288 58.7817 12.5084C59.0904 11.788 59.5179 11.1784 60.08 10.6717C60.6579 10.1492 61.3388 9.75341 62.1304 9.48424C62.9221 9.19924 63.8008 9.04883 64.7746 9.04883C65.7483 9.04883 66.6271 9.19133 67.4188 9.48424C68.2104 9.75341 68.8833 10.1492 69.4454 10.6717C70.0233 11.1784 70.4588 11.788 70.7675 12.5084C71.0763 13.2288 71.2267 14.0284 71.2267 14.9151V18.5647C71.2267 19.4434 71.0763 20.2588 70.7675 20.9951C70.4588 21.7155 70.0313 22.333 69.4692 22.8555C68.915 23.3622 68.2263 23.758 67.4188 24.043C66.6271 24.3122 65.7483 24.4467 64.7746 24.4467C63.8008 24.4467 62.9221 24.3042 62.1304 24.0113C61.3388 23.7263 60.6579 23.3305 60.08 22.8238C59.5258 22.3013 59.0904 21.6838 58.7817 20.9634C58.4729 20.243 58.3225 19.4434 58.3225 18.5567V14.9151Z" fill="white"/>
<path d="M77.8845 18.5567C77.8845 19.4592 78.1537 20.1717 78.692 20.6863C79.2462 21.2088 80.0062 21.4701 80.9641 21.4701C81.922 21.4701 82.6662 21.2088 83.2045 20.6863C83.7587 20.1638 84.0437 19.4513 84.0437 18.5567V14.9072C84.0437 14.0047 83.7666 13.2922 83.2045 12.7776C82.6662 12.2551 81.9141 11.9938 80.9641 11.9938C80.03 11.9938 79.2779 12.2551 78.7237 12.7776C78.1695 13.3001 77.8845 14.0126 77.8845 14.9072V18.5567ZM74.5122 14.9151C74.5122 14.0363 74.6626 13.2288 74.9714 12.5084C75.2801 11.788 75.7075 11.1784 76.2695 10.6717C76.8475 10.1492 77.5283 9.75341 78.32 9.48424C79.1116 9.19924 79.9904 9.04883 80.9641 9.04883C81.9379 9.04883 82.8166 9.19133 83.6083 9.48424C84.4 9.75341 85.0729 10.1492 85.635 10.6717C86.2129 11.1784 86.6483 11.788 86.957 12.5084C87.2658 13.2288 87.4162 14.0284 87.4162 14.9151V18.5647C87.4162 19.4434 87.2658 20.2588 86.957 20.9951C86.6483 21.7155 86.2208 22.333 85.6587 22.8555C85.1045 23.3622 84.4158 23.758 83.6083 24.043C82.8166 24.3122 81.9379 24.4467 80.9641 24.4467C79.9904 24.4467 79.1116 24.3042 78.32 24.0113C77.5283 23.7263 76.8475 23.3305 76.2695 22.8238C75.7155 22.3013 75.2801 21.6838 74.9714 20.9634C74.6626 20.243 74.5122 19.4434 74.5122 18.5567V14.9151Z" fill="white"/>
<path d="M90.2742 9.32603H94.375V4.73438H97.7475V9.32603H103.392V12.3739H97.7475V19.586C97.7475 20.0531 97.8821 20.4331 98.1513 20.7181C98.4363 20.9873 98.8321 21.1219 99.3388 21.1219H103.123V24.1698H99.1013C97.6446 24.1698 96.4888 23.7581 95.6417 22.9269C94.7946 22.0956 94.375 20.9794 94.375 19.5781V12.366H90.2742V9.32603Z" fill="white"/>
<path d="M167.438 1.1875H1.1875V36.8125H167.438V1.1875Z" stroke="#51E14C" stroke-width="3"/>
<path d="M13.8086 30.3711H11.4336V32.3867H14.2031V33H10.7109V27.3125H14.168V27.9297H11.4336V29.7578H13.8086V30.3711ZM15.8844 33V28.7734H16.5328L16.5836 29.3984C16.6461 29.3099 16.7138 29.2292 16.7867 29.1562C16.8622 29.0807 16.9417 29.0156 17.025 28.9609C17.15 28.8776 17.2854 28.8138 17.4313 28.7695C17.5797 28.7227 17.7359 28.6979 17.9 28.6953C18.1214 28.6953 18.3219 28.7266 18.5016 28.7891C18.6839 28.8516 18.8388 28.9492 18.9664 29.082C19.094 29.2148 19.1917 29.3841 19.2594 29.5898C19.3297 29.793 19.3648 30.0352 19.3648 30.3164V33H18.6422V30.332C18.6422 30.1445 18.6214 29.9857 18.5797 29.8555C18.538 29.7253 18.4768 29.6198 18.3961 29.5391C18.3128 29.4583 18.2112 29.3997 18.0914 29.3633C17.9742 29.3268 17.8388 29.3086 17.6852 29.3086C17.5523 29.3086 17.4286 29.3281 17.3141 29.3672C17.1995 29.4036 17.094 29.4544 16.9977 29.5195C16.9195 29.5768 16.8466 29.6432 16.7789 29.7188C16.7138 29.7943 16.6565 29.8776 16.607 29.9688V33H15.8844ZM22.8 27.75V28.7734H24.4094V29.332H22.8V31.6289C22.8 31.793 22.8208 31.9284 22.8625 32.0352C22.9042 32.1419 22.9615 32.2266 23.0344 32.2891C23.1073 32.3542 23.1906 32.3997 23.2844 32.4258C23.3807 32.4518 23.4823 32.4648 23.5891 32.4648C23.6672 32.4648 23.7479 32.4609 23.8313 32.4531C23.9146 32.4427 23.9966 32.431 24.0773 32.418C24.1555 32.4049 24.2284 32.3919 24.2961 32.3789C24.3664 32.3633 24.4237 32.3503 24.468 32.3398L24.5695 32.8516C24.5096 32.888 24.4367 32.9206 24.3508 32.9492C24.2648 32.9753 24.1711 32.9974 24.0695 33.0156C23.968 33.0365 23.8599 33.0521 23.7453 33.0625C23.6333 33.0729 23.5214 33.0781 23.4094 33.0781C23.2219 33.0781 23.0461 33.0521 22.882 33C22.7206 32.9453 22.5799 32.8594 22.4602 32.7422C22.3404 32.6276 22.2453 32.4792 22.175 32.2969C22.1073 32.112 22.0734 31.8893 22.0734 31.6289V29.332H20.9641V28.7734H22.0734V27.75H22.8ZM28.1609 33.0781C27.8641 33.0781 27.5906 33.0273 27.3406 32.9258C27.0932 32.8242 26.881 32.6823 26.7039 32.5C26.5268 32.3177 26.3888 32.1016 26.2898 31.8516C26.1909 31.6016 26.1414 31.3294 26.1414 31.0352V30.8711C26.1414 30.5299 26.1961 30.2253 26.3055 29.957C26.4148 29.6862 26.5607 29.457 26.743 29.2695C26.9227 29.0846 27.1271 28.9427 27.3562 28.8438C27.588 28.7448 27.825 28.6953 28.0672 28.6953C28.3719 28.6953 28.6375 28.7487 28.8641 28.8555C29.0932 28.9596 29.2833 29.1042 29.4344 29.2891C29.5854 29.4766 29.6974 29.6966 29.7703 29.9492C29.8458 30.2018 29.8836 30.4753 29.8836 30.7695V31.0938H26.8641V31.1211C26.8823 31.3268 26.9227 31.5078 26.9852 31.6641C27.0503 31.8203 27.1388 31.9583 27.2508 32.0781C27.3654 32.2057 27.5034 32.306 27.6648 32.3789C27.8263 32.4518 28.0047 32.4883 28.2 32.4883C28.4578 32.4883 28.687 32.4362 28.8875 32.332C29.088 32.2279 29.2547 32.0898 29.3875 31.918L29.8289 32.2617C29.6883 32.4753 29.4773 32.6654 29.1961 32.832C28.9174 32.9961 28.5724 33.0781 28.1609 33.0781ZM28.0672 29.2891C27.9214 29.2891 27.7833 29.3164 27.6531 29.3711C27.5229 29.4232 27.4057 29.5 27.3016 29.6016C27.1974 29.7057 27.1089 29.8333 27.0359 29.9844C26.9656 30.1328 26.9161 30.3047 26.8875 30.5H29.1609V30.4648C29.1609 30.3346 29.1362 30.1953 29.0867 30.0469C29.0372 29.8958 28.9682 29.7656 28.8797 29.6562C28.7911 29.5469 28.6792 29.4583 28.5437 29.3906C28.4109 29.3229 28.2521 29.2891 28.0672 29.2891ZM34.268 28.6953C34.4008 28.6953 34.5388 28.7044 34.682 28.7227C34.8279 28.7409 34.9372 28.7656 35.0102 28.7969L34.9125 29.5039C34.7719 29.4727 34.6378 29.4505 34.5102 29.4375C34.3852 29.4219 34.2536 29.4141 34.1156 29.4141C33.9385 29.4141 33.7784 29.4362 33.6352 29.4805C33.4919 29.5221 33.3669 29.5846 33.2602 29.668C33.1638 29.7409 33.0792 29.8307 33.0063 29.9375C32.9359 30.0417 32.8773 30.1589 32.8305 30.2891V33H32.1039V28.7734H32.7914L32.8227 29.3398L32.8266 29.4453C32.9984 29.2135 33.2042 29.0312 33.4438 28.8984C33.6859 28.763 33.9607 28.6953 34.268 28.6953ZM36.6992 34.625V28.7734H37.3594L37.3945 29.2344C37.4518 29.1615 37.5143 29.0964 37.582 29.0391C37.6497 28.9792 37.7227 28.9284 37.8008 28.8867C37.9102 28.8242 38.0312 28.7773 38.1641 28.7461C38.2995 28.7122 38.444 28.6953 38.5977 28.6953C38.8685 28.6953 39.1081 28.7487 39.3164 28.8555C39.5247 28.9622 39.6992 29.1107 39.8398 29.3008C39.9805 29.4909 40.0872 29.7188 40.1602 29.9844C40.2331 30.2474 40.2695 30.5365 40.2695 30.8516V30.9336C40.2695 31.2357 40.2331 31.5182 40.1602 31.7812C40.0872 32.0417 39.9805 32.2682 39.8398 32.4609C39.6992 32.6536 39.5247 32.8047 39.3164 32.9141C39.1107 33.0234 38.875 33.0781 38.6094 33.0781C38.4479 33.0781 38.2969 33.0612 38.1562 33.0273C38.0182 32.9935 37.8932 32.9453 37.7812 32.8828C37.7135 32.8438 37.6497 32.8008 37.5898 32.7539C37.5299 32.7044 37.474 32.651 37.4219 32.5938V34.625H36.6992ZM39.5469 30.8516C39.5469 30.6458 39.5234 30.4505 39.4766 30.2656C39.4323 30.0781 39.3633 29.9128 39.2695 29.7695C39.1732 29.6289 39.0521 29.5169 38.9062 29.4336C38.7604 29.3503 38.5859 29.3086 38.3828 29.3086C38.2708 29.3086 38.1667 29.3216 38.0703 29.3477C37.9766 29.3737 37.8919 29.4115 37.8164 29.4609C37.7331 29.5104 37.6589 29.5716 37.5938 29.6445C37.5286 29.7174 37.4714 29.7982 37.4219 29.8867V31.9219C37.4661 32 37.5169 32.0729 37.5742 32.1406C37.6315 32.2083 37.6966 32.2656 37.7695 32.3125C37.8529 32.3672 37.9453 32.4102 38.0469 32.4414C38.151 32.4727 38.2656 32.4883 38.3906 32.4883C38.5911 32.4883 38.7643 32.4466 38.9102 32.3633C39.056 32.2773 39.1758 32.1628 39.2695 32.0195C39.3633 31.8763 39.4323 31.7109 39.4766 31.5234C39.5234 31.3359 39.5469 31.1393 39.5469 30.9336V30.8516ZM44.6773 28.6953C44.8102 28.6953 44.9482 28.7044 45.0914 28.7227C45.2372 28.7409 45.3466 28.7656 45.4195 28.7969L45.3219 29.5039C45.1812 29.4727 45.0471 29.4505 44.9195 29.4375C44.7945 29.4219 44.663 29.4141 44.525 29.4141C44.3479 29.4141 44.1878 29.4362 44.0445 29.4805C43.9013 29.5221 43.7763 29.5846 43.6695 29.668C43.5732 29.7409 43.4885 29.8307 43.4156 29.9375C43.3453 30.0417 43.2867 30.1589 43.2398 30.2891V33H42.5133V28.7734H43.2008L43.232 29.3398L43.2359 29.4453C43.4078 29.2135 43.6135 29.0312 43.8531 28.8984C44.0953 28.763 44.3701 28.6953 44.6773 28.6953ZM47.2258 28.7734H49.3859V32.375H50.7648V33H47.2258V32.375H48.6633V29.4023H47.2258V28.7734ZM48.5695 27.6641C48.5695 27.6016 48.5786 27.543 48.5969 27.4883C48.6177 27.4336 48.649 27.3867 48.6906 27.3477C48.7245 27.3138 48.7674 27.2878 48.8195 27.2695C48.8742 27.2487 48.9354 27.2383 49.0031 27.2383C49.0708 27.2383 49.1307 27.2487 49.1828 27.2695C49.2349 27.2878 49.2779 27.3138 49.3117 27.3477C49.3534 27.3841 49.3846 27.4297 49.4055 27.4844C49.4263 27.5391 49.4367 27.599 49.4367 27.6641C49.4367 27.7812 49.4003 27.8789 49.3273 27.957C49.2544 28.0352 49.1464 28.0742 49.0031 28.0742C48.8573 28.0742 48.7479 28.0352 48.675 27.957C48.6047 27.8789 48.5695 27.7812 48.5695 27.6641ZM55.1258 31.8789C55.1258 31.793 55.1089 31.7161 55.075 31.6484C55.0411 31.5781 54.9839 31.5143 54.9031 31.457C54.8224 31.3997 54.7156 31.3477 54.5828 31.3008C54.45 31.2513 54.2846 31.207 54.0867 31.168C53.8445 31.1185 53.6232 31.0586 53.4227 30.9883C53.2247 30.918 53.0555 30.8333 52.9148 30.7344C52.7716 30.638 52.6609 30.5247 52.5828 30.3945C52.5047 30.2617 52.4656 30.1081 52.4656 29.9336C52.4656 29.7617 52.506 29.6016 52.5867 29.4531C52.6674 29.3021 52.7807 29.1706 52.9266 29.0586C53.0724 28.9466 53.2456 28.8581 53.4461 28.793C53.6492 28.7279 53.8719 28.6953 54.1141 28.6953C54.3745 28.6953 54.6089 28.7292 54.8172 28.7969C55.0255 28.8646 55.2026 28.9583 55.3484 29.0781C55.4943 29.1979 55.6063 29.3385 55.6844 29.5C55.7651 29.6589 55.8055 29.8307 55.8055 30.0156H55.0828C55.0828 29.9245 55.0594 29.8359 55.0125 29.75C54.9656 29.6615 54.9005 29.5833 54.8172 29.5156C54.7339 29.4479 54.6323 29.3932 54.5125 29.3516C54.3953 29.3099 54.2625 29.2891 54.1141 29.2891C53.9604 29.2891 53.825 29.306 53.7078 29.3398C53.5932 29.3737 53.4982 29.4193 53.4227 29.4766C53.3445 29.5339 53.2859 29.6003 53.2469 29.6758C53.2078 29.7513 53.1883 29.8294 53.1883 29.9102C53.1883 29.9935 53.2039 30.0677 53.2352 30.1328C53.2664 30.1979 53.3211 30.2565 53.3992 30.3086C53.4747 30.3607 53.5763 30.4076 53.7039 30.4492C53.8341 30.4909 53.9982 30.5312 54.1961 30.5703C54.4565 30.625 54.6896 30.6888 54.8953 30.7617C55.101 30.832 55.2742 30.9167 55.4148 31.0156C55.5555 31.1172 55.6622 31.2344 55.7352 31.3672C55.8107 31.5 55.8484 31.6536 55.8484 31.8281C55.8484 32.0156 55.8055 32.1862 55.7195 32.3398C55.6362 32.4935 55.519 32.625 55.368 32.7344C55.2169 32.8438 55.0359 32.9284 54.825 32.9883C54.6141 33.0482 54.3836 33.0781 54.1336 33.0781C53.8471 33.0781 53.5919 33.0404 53.368 32.9648C53.144 32.8867 52.9552 32.7839 52.8016 32.6562C52.6453 32.5312 52.5255 32.3854 52.4422 32.2188C52.3615 32.0521 52.3211 31.8789 52.3211 31.6992H53.0438C53.0542 31.8477 53.0932 31.9727 53.1609 32.0742C53.2313 32.1758 53.3185 32.2578 53.4227 32.3203C53.5242 32.3828 53.6375 32.4271 53.7625 32.4531C53.8875 32.4792 54.0112 32.4922 54.1336 32.4922C54.3263 32.4922 54.4943 32.4701 54.6375 32.4258C54.7807 32.3789 54.8927 32.3151 54.9734 32.2344C55.0229 32.1849 55.0607 32.1302 55.0867 32.0703C55.1128 32.0104 55.1258 31.9466 55.1258 31.8789ZM59.3891 33.0781C59.0922 33.0781 58.8187 33.0273 58.5687 32.9258C58.3214 32.8242 58.1091 32.6823 57.932 32.5C57.7549 32.3177 57.6169 32.1016 57.518 31.8516C57.419 31.6016 57.3695 31.3294 57.3695 31.0352V30.8711C57.3695 30.5299 57.4242 30.2253 57.5336 29.957C57.643 29.6862 57.7888 29.457 57.9711 29.2695C58.1508 29.0846 58.3552 28.9427 58.5844 28.8437C58.8161 28.7448 59.0531 28.6953 59.2953 28.6953C59.6 28.6953 59.8656 28.7487 60.0922 28.8555C60.3214 28.9596 60.5115 29.1042 60.6625 29.2891C60.8135 29.4766 60.9255 29.6966 60.9984 29.9492C61.074 30.2018 61.1117 30.4753 61.1117 30.7695V31.0937H58.0922V31.1211C58.1104 31.3268 58.1508 31.5078 58.2133 31.6641C58.2784 31.8203 58.3669 31.9583 58.4789 32.0781C58.5935 32.2057 58.7315 32.306 58.893 32.3789C59.0544 32.4518 59.2328 32.4883 59.4281 32.4883C59.6859 32.4883 59.9151 32.4362 60.1156 32.332C60.3161 32.2279 60.4828 32.0898 60.6156 31.918L61.057 32.2617C60.9164 32.4753 60.7055 32.6654 60.4242 32.832C60.1456 32.9961 59.8005 33.0781 59.3891 33.0781ZM59.2953 29.2891C59.1495 29.2891 59.0115 29.3164 58.8812 29.3711C58.751 29.4232 58.6339 29.5 58.5297 29.6016C58.4255 29.7057 58.337 29.8333 58.2641 29.9844C58.1937 30.1328 58.1443 30.3047 58.1156 30.5H60.3891V30.4648C60.3891 30.3346 60.3643 30.1953 60.3148 30.0469C60.2654 29.8958 60.1964 29.7656 60.1078 29.6562C60.0193 29.5469 59.9073 29.4583 59.7719 29.3906C59.6391 29.3229 59.4802 29.2891 59.2953 29.2891ZM71.0602 30.3711H68.6852V32.3867H71.4547V33H67.9625V27.3125H71.4195V27.9297H68.6852V29.7578H71.0602V30.3711ZM72.9992 30.8516C72.9992 30.5365 73.0383 30.2474 73.1164 29.9844C73.1971 29.7187 73.3117 29.4909 73.4602 29.3008C73.606 29.1107 73.7831 28.9622 73.9914 28.8555C74.1997 28.7487 74.4328 28.6953 74.6906 28.6953C74.9432 28.6953 75.1633 28.7383 75.3508 28.8242C75.5409 28.9076 75.7049 29.0299 75.843 29.1914V27H76.5656V33H75.9016L75.8703 32.5547C75.7297 32.7266 75.5617 32.8568 75.3664 32.9453C75.1711 33.0339 74.9432 33.0781 74.6828 33.0781C74.4276 33.0781 74.1958 33.0234 73.9875 32.9141C73.7818 32.8047 73.606 32.6536 73.4602 32.4609C73.3143 32.2682 73.201 32.0417 73.1203 31.7812C73.0396 31.5182 72.9992 31.2357 72.9992 30.9336V30.8516ZM73.7219 30.9336C73.7219 31.1393 73.744 31.3346 73.7883 31.5195C73.8326 31.7044 73.9016 31.8672 73.9953 32.0078C74.0865 32.1484 74.2036 32.2604 74.3469 32.3438C74.4901 32.4245 74.662 32.4648 74.8625 32.4648C75.1047 32.4648 75.3052 32.4102 75.4641 32.3008C75.6229 32.1914 75.7492 32.0443 75.843 31.8594V29.8984C75.7492 29.7266 75.6229 29.5859 75.4641 29.4766C75.3052 29.3646 75.1073 29.3086 74.8703 29.3086C74.6672 29.3086 74.4927 29.3503 74.3469 29.4336C74.2036 29.5169 74.0865 29.6289 73.9953 29.7695C73.9016 29.9128 73.8326 30.0781 73.7883 30.2656C73.744 30.4505 73.7219 30.6458 73.7219 30.8516V30.9336ZM78.4539 28.7734H80.6141V32.375H81.993V33H78.4539V32.375H79.8914V29.4023H78.4539V28.7734ZM79.7977 27.6641C79.7977 27.6016 79.8068 27.543 79.825 27.4883C79.8458 27.4336 79.8771 27.3867 79.9187 27.3477C79.9526 27.3138 79.9956 27.2878 80.0477 27.2695C80.1023 27.2487 80.1635 27.2383 80.2312 27.2383C80.299 27.2383 80.3589 27.2487 80.4109 27.2695C80.463 27.2878 80.506 27.3138 80.5398 27.3477C80.5815 27.3841 80.6128 27.4297 80.6336 27.4844C80.6544 27.5391 80.6648 27.599 80.6648 27.6641C80.6648 27.7812 80.6284 27.8789 80.5555 27.957C80.4825 28.0352 80.3745 28.0742 80.2312 28.0742C80.0854 28.0742 79.976 28.0352 79.9031 27.957C79.8328 27.8789 79.7977 27.7812 79.7977 27.6641ZM85.2562 27.75V28.7734H86.8656V29.332H85.2562V31.6289C85.2562 31.793 85.2771 31.9284 85.3187 32.0352C85.3604 32.1419 85.4177 32.2266 85.4906 32.2891C85.5635 32.3542 85.6469 32.3997 85.7406 32.4258C85.837 32.4518 85.9385 32.4648 86.0453 32.4648C86.1234 32.4648 86.2042 32.4609 86.2875 32.4531C86.3708 32.4427 86.4529 32.431 86.5336 32.418C86.6117 32.4049 86.6846 32.3919 86.7523 32.3789C86.8227 32.3633 86.8799 32.3503 86.9242 32.3398L87.0258 32.8516C86.9659 32.888 86.893 32.9206 86.807 32.9492C86.7211 32.9753 86.6273 32.9974 86.5258 33.0156C86.4242 33.0365 86.3161 33.0521 86.2016 33.0625C86.0896 33.0729 85.9776 33.0781 85.8656 33.0781C85.6781 33.0781 85.5023 33.0521 85.3383 33C85.1768 32.9453 85.0362 32.8594 84.9164 32.7422C84.7966 32.6276 84.7016 32.4792 84.6312 32.2969C84.5635 32.112 84.5297 31.8893 84.5297 31.6289V29.332H83.4203V28.7734H84.5297V27.75H85.2562ZM88.8633 28.7734H91.0234V32.375H92.4023V33L88.8633 33V32.375L90.3008 32.375V29.4023H88.8633V28.7734ZM90.207 27.6641C90.207 27.6016 90.2161 27.543 90.2344 27.4883C90.2552 27.4336 90.2865 27.3867 90.3281 27.3477C90.362 27.3138 90.4049 27.2878 90.457 27.2695C90.5117 27.2487 90.5729 27.2383 90.6406 27.2383C90.7083 27.2383 90.7682 27.2487 90.8203 27.2695C90.8724 27.2878 90.9154 27.3138 90.9492 27.3477C90.9909 27.3841 91.0221 27.4297 91.043 27.4844C91.0638 27.5391 91.0742 27.599 91.0742 27.6641C91.0742 27.7812 91.0378 27.8789 90.9648 27.957C90.8919 28.0352 90.7839 28.0742 90.6406 28.0742C90.4948 28.0742 90.3854 28.0352 90.3125 27.957C90.2422 27.8789 90.207 27.7812 90.207 27.6641ZM93.7516 30.8477C93.7516 30.543 93.7958 30.2604 93.8844 30C93.9729 29.737 94.1005 29.5091 94.2672 29.3164C94.4313 29.1237 94.6318 28.9727 94.8688 28.8633C95.1057 28.7513 95.3727 28.6953 95.6695 28.6953C95.969 28.6953 96.2372 28.7513 96.4742 28.8633C96.7138 28.9727 96.9169 29.1237 97.0836 29.3164C97.2477 29.5091 97.374 29.737 97.4625 30C97.551 30.2604 97.5953 30.543 97.5953 30.8477V30.9336C97.5953 31.2383 97.551 31.5208 97.4625 31.7812C97.374 32.0417 97.2477 32.2682 97.0836 32.4609C96.9169 32.6536 96.7151 32.8047 96.4781 32.9141C96.2411 33.0234 95.9742 33.0781 95.6773 33.0781C95.3779 33.0781 95.1083 33.0234 94.8688 32.9141C94.6318 32.8047 94.4313 32.6536 94.2672 32.4609C94.1005 32.2682 93.9729 32.0417 93.8844 31.7812C93.7958 31.5208 93.7516 31.2383 93.7516 30.9336V30.8477ZM94.4742 30.9336C94.4742 31.1419 94.499 31.3411 94.5484 31.5312C94.5979 31.7187 94.6734 31.8841 94.775 32.0273C94.874 32.1706 94.999 32.2839 95.15 32.3672C95.301 32.4505 95.4768 32.4922 95.6773 32.4922C95.8753 32.4922 96.0484 32.4505 96.1969 32.3672C96.3479 32.2839 96.4742 32.1706 96.5758 32.0273C96.6747 31.8841 96.749 31.7187 96.7984 31.5312C96.8479 31.3411 96.8727 31.1419 96.8727 30.9336V30.8477C96.8727 30.6419 96.8466 30.4453 96.7945 30.2578C96.7451 30.0677 96.6708 29.901 96.5719 29.7578C96.4703 29.6146 96.344 29.5013 96.193 29.418C96.0445 29.332 95.8701 29.2891 95.6695 29.2891C95.469 29.2891 95.2945 29.332 95.1461 29.418C94.9977 29.5013 94.874 29.6146 94.775 29.7578C94.6734 29.901 94.5979 30.0677 94.5484 30.2578C94.499 30.4453 94.4742 30.6419 94.4742 30.8477V30.9336ZM99.1594 33V28.7734H99.8078L99.8586 29.3984C99.9211 29.3099 99.9888 29.2292 100.062 29.1562C100.137 29.0807 100.217 29.0156 100.3 28.9609C100.425 28.8776 100.56 28.8138 100.706 28.7695C100.855 28.7227 101.011 28.6979 101.175 28.6953C101.396 28.6953 101.597 28.7266 101.777 28.7891C101.959 28.8516 102.114 28.9492 102.241 29.082C102.369 29.2148 102.467 29.3841 102.534 29.5898C102.605 29.793 102.64 30.0352 102.64 30.3164V33H101.917V30.332C101.917 30.1445 101.896 29.9857 101.855 29.8555C101.813 29.7253 101.752 29.6198 101.671 29.5391C101.588 29.4583 101.486 29.3997 101.366 29.3633C101.249 29.3268 101.114 29.3086 100.96 29.3086C100.827 29.3086 100.704 29.3281 100.589 29.3672C100.474 29.4036 100.369 29.4544 100.273 29.5195C100.195 29.5768 100.122 29.6432 100.054 29.7187C99.9888 29.7943 99.9315 29.8776 99.882 29.9687V33H99.1594Z" fill="white"/>
</g>
<defs>
<clipPath id="clip0_1055_16">
<rect width="169.417" height="38" fill="white"/>
</clipPath>
</defs>
</svg>
