<svg width="463" height="111" viewBox="0 0 463 111" fill="none" xmlns="http://www.w3.org/2000/svg">
<circle cx="108" cy="69" r="5" fill="#0038FE"/>
<circle cx="129" cy="69" r="5" fill="#8FCAEC"/>
<circle cx="150" cy="69" r="5" fill="#ECA48F"/>
<circle cx="171" cy="69" r="5" fill="#E75225"/>
<path d="M108 48L112.33 55.5H103.67L108 48Z" fill="#0038FE"/>
<path d="M129 48L133.33 55.5H124.67L129 48Z" fill="#8FCAEC"/>
<path d="M150 48L154.33 55.5H145.67L150 48Z" fill="#ECA48F"/>
<path d="M171 48L175.33 55.5H166.67L171 48Z" fill="#E75225"/>
<rect x="104" y="30" width="10" height="10" fill="#0038FE"/>
<rect x="125" y="30" width="10" height="10" fill="#8FCAEC"/>
<rect x="146" y="30" width="10" height="10" fill="#ECA48F"/>
<rect x="167" y="30" width="10" height="10" fill="#E75225"/>
<path d="M328.001 68.9998L317.998 63.2305L318.003 74.7775L328.001 68.9998ZM216 70.0469L319.001 70.0036L319 68.0036L216 68.0469L216 70.0469Z" fill="black"/>
<path d="M7.97727 31.2727V40H6.95455L2.19886 33.1477H2.11364V40H1.05682V31.2727H2.07955L6.85227 38.142H6.9375V31.2727H7.97727ZM12.6147 40.1364C12.0238 40.1364 11.5053 39.9957 11.0593 39.7145C10.6161 39.4332 10.2695 39.0398 10.0195 38.5341C9.77237 38.0284 9.64879 37.4375 9.64879 36.7614C9.64879 36.0795 9.77237 35.4844 10.0195 34.9759C10.2695 34.4673 10.6161 34.0724 11.0593 33.7912C11.5053 33.5099 12.0238 33.3693 12.6147 33.3693C13.2056 33.3693 13.7227 33.5099 14.1658 33.7912C14.6119 34.0724 14.9585 34.4673 15.2056 34.9759C15.4556 35.4844 15.5806 36.0795 15.5806 36.7614C15.5806 37.4375 15.4556 38.0284 15.2056 38.5341C14.9585 39.0398 14.6119 39.4332 14.1658 39.7145C13.7227 39.9957 13.2056 40.1364 12.6147 40.1364ZM12.6147 39.233C13.0636 39.233 13.4329 39.1179 13.7227 38.8878C14.0124 38.6577 14.2269 38.3551 14.3661 37.9801C14.5053 37.6051 14.5749 37.1989 14.5749 36.7614C14.5749 36.3239 14.5053 35.9162 14.3661 35.5384C14.2269 35.1605 14.0124 34.8551 13.7227 34.6222C13.4329 34.3892 13.0636 34.2727 12.6147 34.2727C12.1658 34.2727 11.7965 34.3892 11.5067 34.6222C11.217 34.8551 11.0025 35.1605 10.8633 35.5384C10.7241 35.9162 10.6545 36.3239 10.6545 36.7614C10.6545 37.1989 10.7241 37.6051 10.8633 37.9801C11.0025 38.3551 11.217 38.6577 11.5067 38.8878C11.7965 39.1179 12.1658 39.233 12.6147 39.233ZM19.5874 40.1364C19.0419 40.1364 18.5604 39.9986 18.1428 39.723C17.7251 39.4446 17.3984 39.0526 17.1626 38.5469C16.9268 38.0384 16.8089 37.4375 16.8089 36.7443C16.8089 36.0568 16.9268 35.4602 17.1626 34.9545C17.3984 34.4489 17.7266 34.0582 18.147 33.7827C18.5675 33.5071 19.0533 33.3693 19.6044 33.3693C20.0305 33.3693 20.3672 33.4403 20.6143 33.5824C20.8643 33.7216 21.0547 33.8807 21.1854 34.0597C21.3189 34.2358 21.4226 34.3807 21.4964 34.4943H21.5817V31.2727H22.5874V40H21.6158V38.9943H21.4964C21.4226 39.1136 21.3175 39.2642 21.1811 39.446C21.0447 39.625 20.8501 39.7855 20.5973 39.9276C20.3445 40.0668 20.0078 40.1364 19.5874 40.1364ZM19.7237 39.233C20.1271 39.233 20.468 39.1278 20.7464 38.9176C21.0249 38.7045 21.2365 38.4105 21.3814 38.0355C21.5263 37.6577 21.5987 37.2216 21.5987 36.7273C21.5987 36.2386 21.5277 35.8111 21.3857 35.4446C21.2436 35.0753 21.0334 34.7884 20.755 34.5838C20.4766 34.3764 20.1328 34.2727 19.7237 34.2727C19.2976 34.2727 18.9425 34.3821 18.6584 34.6009C18.3771 34.8168 18.1655 35.1108 18.0234 35.483C17.8842 35.8523 17.8146 36.267 17.8146 36.7273C17.8146 37.1932 17.8857 37.6165 18.0277 37.9972C18.1726 38.375 18.3857 38.6761 18.6669 38.9006C18.951 39.1222 19.3033 39.233 19.7237 39.233ZM27.3132 40.1364C26.6825 40.1364 26.1385 39.9972 25.6811 39.7188C25.2266 39.4375 24.8757 39.0455 24.6286 38.5426C24.3842 38.0369 24.2621 37.4489 24.2621 36.7784C24.2621 36.108 24.3842 35.517 24.6286 35.0057C24.8757 34.4915 25.2195 34.0909 25.6598 33.804C26.103 33.5142 26.62 33.3693 27.2109 33.3693C27.5518 33.3693 27.8885 33.4261 28.2209 33.5398C28.5533 33.6534 28.8558 33.8381 29.1286 34.0938C29.4013 34.3466 29.6186 34.6818 29.7805 35.0994C29.9425 35.517 30.0234 36.0312 30.0234 36.642V37.0682H24.978V36.1989H29.0007C29.0007 35.8295 28.9268 35.5 28.7791 35.2102C28.6342 34.9205 28.4268 34.6918 28.157 34.5241C27.8899 34.3565 27.5746 34.2727 27.2109 34.2727C26.8104 34.2727 26.4638 34.3722 26.1712 34.571C25.8814 34.767 25.6584 35.0227 25.5021 35.3381C25.3459 35.6534 25.2678 35.9915 25.2678 36.3523V36.9318C25.2678 37.4261 25.353 37.8452 25.5234 38.1889C25.6967 38.5298 25.9368 38.7898 26.2436 38.9688C26.5504 39.1449 26.907 39.233 27.3132 39.233C27.5774 39.233 27.8161 39.196 28.0291 39.1222C28.245 39.0455 28.4311 38.9318 28.5874 38.7812C28.7436 38.6278 28.8643 38.4375 28.9496 38.2102L29.9212 38.483C29.8189 38.8125 29.647 39.1023 29.4055 39.3523C29.1641 39.5994 28.8658 39.7926 28.5107 39.9318C28.1555 40.0682 27.7564 40.1364 27.3132 40.1364ZM42.0874 34H41.0305C40.968 33.696 40.8587 33.429 40.7024 33.1989C40.549 32.9688 40.3615 32.7756 40.1399 32.6193C39.9212 32.4602 39.6783 32.3409 39.4112 32.2614C39.1442 32.1818 38.8658 32.142 38.576 32.142C38.0476 32.142 37.5689 32.2756 37.1399 32.5426C36.7138 32.8097 36.3743 33.2031 36.1214 33.723C35.8714 34.2429 35.7464 34.8807 35.7464 35.6364C35.7464 36.392 35.8714 37.0298 36.1214 37.5497C36.3743 38.0696 36.7138 38.4631 37.1399 38.7301C37.5689 38.9972 38.0476 39.1307 38.576 39.1307C38.8658 39.1307 39.1442 39.0909 39.4112 39.0114C39.6783 38.9318 39.9212 38.8139 40.1399 38.6577C40.3615 38.4986 40.549 38.304 40.7024 38.0739C40.8587 37.8409 40.968 37.5739 41.0305 37.2727H42.0874C42.0078 37.7187 41.8629 38.1179 41.6527 38.4702C41.4425 38.8224 41.1811 39.1222 40.8686 39.3693C40.5561 39.6136 40.2053 39.7997 39.8161 39.9276C39.4297 40.0554 39.0163 40.1193 38.576 40.1193C37.8317 40.1193 37.1697 39.9375 36.5902 39.5739C36.0107 39.2102 35.5547 38.6932 35.2223 38.0227C34.8899 37.3523 34.7237 36.5568 34.7237 35.6364C34.7237 34.7159 34.8899 33.9205 35.2223 33.25C35.5547 32.5795 36.0107 32.0625 36.5902 31.6989C37.1697 31.3352 37.8317 31.1534 38.576 31.1534C39.0163 31.1534 39.4297 31.2173 39.8161 31.3452C40.2053 31.473 40.5561 31.6605 40.8686 31.9077C41.1811 32.152 41.4425 32.4503 41.6527 32.8026C41.8629 33.152 42.0078 33.5511 42.0874 34ZM43.7951 40V31.2727H46.744C47.4286 31.2727 47.9883 31.3963 48.4229 31.6435C48.8604 31.8878 49.1843 32.2188 49.3945 32.6364C49.6048 33.054 49.7099 33.5199 49.7099 34.0341C49.7099 34.5483 49.6048 35.0156 49.3945 35.4361C49.1871 35.8565 48.8661 36.1918 48.4315 36.4418C47.9968 36.6889 47.44 36.8125 46.761 36.8125H44.6474V35.875H46.7269C47.1957 35.875 47.5721 35.794 47.8562 35.6321C48.1403 35.4702 48.3462 35.2514 48.4741 34.9759C48.6048 34.6974 48.6701 34.3835 48.6701 34.0341C48.6701 33.6847 48.6048 33.3722 48.4741 33.0966C48.3462 32.821 48.1388 32.6051 47.8519 32.4489C47.565 32.2898 47.1843 32.2102 46.7099 32.2102H44.8519V40H43.7951ZM57.1396 31.2727H58.1964V37.0511C58.1964 37.6477 58.0558 38.1804 57.7745 38.6491C57.4961 39.1151 57.1026 39.483 56.5941 39.7528C56.0856 40.0199 55.489 40.1534 54.8043 40.1534C54.1197 40.1534 53.5231 40.0199 53.0146 39.7528C52.506 39.483 52.1112 39.1151 51.8299 38.6491C51.5515 38.1804 51.4123 37.6477 51.4123 37.0511V31.2727H52.4691V36.9659C52.4691 37.392 52.5629 37.7713 52.7504 38.1037C52.9379 38.4332 53.2049 38.6932 53.5515 38.8835C53.9009 39.071 54.3185 39.1648 54.8043 39.1648C55.2901 39.1648 55.7077 39.071 56.0572 38.8835C56.4066 38.6932 56.6737 38.4332 56.8583 38.1037C57.0458 37.7713 57.1396 37.392 57.1396 36.9659V31.2727ZM8.07955 51H7.02273C6.96023 50.696 6.85085 50.429 6.6946 50.1989C6.54119 49.9688 6.35369 49.7756 6.1321 49.6193C5.91335 49.4602 5.67045 49.3409 5.40341 49.2614C5.13636 49.1818 4.85795 49.142 4.56818 49.142C4.03977 49.142 3.56108 49.2756 3.1321 49.5426C2.70597 49.8097 2.36648 50.2031 2.11364 50.723C1.86364 51.2429 1.73864 51.8807 1.73864 52.6364C1.73864 53.392 1.86364 54.0298 2.11364 54.5497C2.36648 55.0696 2.70597 55.4631 3.1321 55.7301C3.56108 55.9972 4.03977 56.1307 4.56818 56.1307C4.85795 56.1307 5.13636 56.0909 5.40341 56.0114C5.67045 55.9318 5.91335 55.8139 6.1321 55.6577C6.35369 55.4986 6.54119 55.304 6.6946 55.0739C6.85085 54.8409 6.96023 54.5739 7.02273 54.2727H8.07955C8 54.7187 7.85511 55.1179 7.64489 55.4702C7.43466 55.8224 7.1733 56.1222 6.8608 56.3693C6.5483 56.6136 6.19744 56.7997 5.80824 56.9276C5.42188 57.0554 5.00852 57.1193 4.56818 57.1193C3.82386 57.1193 3.16193 56.9375 2.58239 56.5739C2.00284 56.2102 1.54688 55.6932 1.21449 55.0227C0.882102 54.3523 0.715909 53.5568 0.715909 52.6364C0.715909 51.7159 0.882102 50.9205 1.21449 50.25C1.54688 49.5795 2.00284 49.0625 2.58239 48.6989C3.16193 48.3352 3.82386 48.1534 4.56818 48.1534C5.00852 48.1534 5.42188 48.2173 5.80824 48.3452C6.19744 48.473 6.5483 48.6605 6.8608 48.9077C7.1733 49.152 7.43466 49.4503 7.64489 49.8026C7.85511 50.152 8 50.5511 8.07955 51ZM12.31 57.1364C11.7191 57.1364 11.2006 56.9957 10.7546 56.7145C10.3114 56.4332 9.96484 56.0398 9.71484 55.5341C9.46768 55.0284 9.34411 54.4375 9.34411 53.7614C9.34411 53.0795 9.46768 52.4844 9.71484 51.9759C9.96484 51.4673 10.3114 51.0724 10.7546 50.7912C11.2006 50.5099 11.7191 50.3693 12.31 50.3693C12.9009 50.3693 13.418 50.5099 13.8612 50.7912C14.3072 51.0724 14.6538 51.4673 14.9009 51.9759C15.1509 52.4844 15.2759 53.0795 15.2759 53.7614C15.2759 54.4375 15.1509 55.0284 14.9009 55.5341C14.6538 56.0398 14.3072 56.4332 13.8612 56.7145C13.418 56.9957 12.9009 57.1364 12.31 57.1364ZM12.31 56.233C12.7589 56.233 13.1282 56.1179 13.418 55.8878C13.7077 55.6577 13.9222 55.3551 14.0614 54.9801C14.2006 54.6051 14.2702 54.1989 14.2702 53.7614C14.2702 53.3239 14.2006 52.9162 14.0614 52.5384C13.9222 52.1605 13.7077 51.8551 13.418 51.6222C13.1282 51.3892 12.7589 51.2727 12.31 51.2727C11.8612 51.2727 11.4918 51.3892 11.2021 51.6222C10.9123 51.8551 10.6978 52.1605 10.5586 52.5384C10.4194 52.9162 10.3498 53.3239 10.3498 53.7614C10.3498 54.1989 10.4194 54.6051 10.5586 54.9801C10.6978 55.3551 10.9123 55.6577 11.2021 55.8878C11.4918 56.1179 11.8612 56.233 12.31 56.233ZM17.8168 53.0625V57H16.8111V50.4545H17.7827V51.4773H17.8679C18.0213 51.1449 18.2543 50.8778 18.5668 50.6761C18.8793 50.4716 19.2827 50.3693 19.777 50.3693C20.2202 50.3693 20.608 50.4602 20.9403 50.642C21.2727 50.821 21.5313 51.0938 21.7159 51.4602C21.9006 51.8239 21.9929 52.2841 21.9929 52.8409V57H20.9872V52.9091C20.9872 52.3949 20.8537 51.9943 20.5866 51.7074C20.3196 51.4176 19.9531 51.2727 19.4872 51.2727C19.1662 51.2727 18.8793 51.3423 18.6264 51.4815C18.3764 51.6207 18.179 51.8239 18.0341 52.0909C17.8892 52.358 17.8168 52.6818 17.8168 53.0625ZM26.6772 50.4545V51.3068H23.2852V50.4545H26.6772ZM24.2738 48.8864H25.2795V55.125C25.2795 55.4091 25.3207 55.6222 25.4031 55.7642C25.4883 55.9034 25.5962 55.9972 25.7269 56.0455C25.8604 56.0909 26.0011 56.1136 26.1488 56.1136C26.2596 56.1136 26.3505 56.108 26.4215 56.0966C26.4925 56.0824 26.5494 56.071 26.592 56.0625L26.7965 56.9659C26.7283 56.9915 26.6332 57.017 26.511 57.0426C26.3888 57.071 26.234 57.0852 26.0465 57.0852C25.7624 57.0852 25.484 57.0241 25.2113 56.902C24.9414 56.7798 24.717 56.5938 24.538 56.3438C24.3619 56.0938 24.2738 55.7784 24.2738 55.3977V48.8864ZM30.1161 57.1534C29.7013 57.1534 29.3249 57.0753 28.9869 56.919C28.6488 56.7599 28.3803 56.5312 28.1815 56.233C27.9826 55.9318 27.8832 55.5682 27.8832 55.142C27.8832 54.767 27.957 54.4631 28.1048 54.2301C28.2525 53.9943 28.4499 53.8097 28.6971 53.6761C28.9442 53.5426 29.217 53.4432 29.5153 53.3778C29.8164 53.3097 30.119 53.2557 30.4229 53.2159C30.8207 53.1648 31.1431 53.1264 31.3903 53.1009C31.6403 53.0724 31.8221 53.0256 31.9357 52.9602C32.0522 52.8949 32.1104 52.7812 32.1104 52.6193V52.5852C32.1104 52.1648 31.9954 51.8381 31.7653 51.6051C31.538 51.3722 31.1928 51.2557 30.7298 51.2557C30.2496 51.2557 29.8732 51.3608 29.6005 51.571C29.3278 51.7812 29.136 52.0057 29.0252 52.2443L28.0707 51.9034C28.2411 51.5057 28.4684 51.196 28.7525 50.9744C29.0394 50.75 29.3519 50.5937 29.69 50.5057C30.0309 50.4148 30.3661 50.3693 30.6957 50.3693C30.9059 50.3693 31.1474 50.3949 31.4201 50.446C31.6957 50.4943 31.9613 50.5952 32.217 50.7486C32.4755 50.902 32.69 51.1335 32.8604 51.4432C33.0309 51.7528 33.1161 52.1676 33.1161 52.6875V57H32.1104V56.1136H32.0593C31.9911 56.2557 31.8775 56.4077 31.7184 56.5696C31.5593 56.7315 31.3477 56.8693 31.0835 56.983C30.8192 57.0966 30.4968 57.1534 30.1161 57.1534ZM30.2695 56.25C30.6673 56.25 31.0025 56.1719 31.2752 56.0156C31.5508 55.8594 31.7582 55.6577 31.8974 55.4105C32.0394 55.1634 32.1104 54.9034 32.1104 54.6307V53.7102C32.0678 53.7614 31.9741 53.8082 31.8292 53.8509C31.6871 53.8906 31.5224 53.9261 31.3349 53.9574C31.1502 53.9858 30.9698 54.0114 30.7937 54.0341C30.6204 54.054 30.4798 54.071 30.3718 54.0852C30.1104 54.1193 29.8661 54.1747 29.6388 54.2514C29.4144 54.3253 29.2326 54.4375 29.0934 54.5881C28.957 54.7358 28.8888 54.9375 28.8888 55.1932C28.8888 55.5426 29.0181 55.8068 29.2766 55.9858C29.538 56.1619 29.869 56.25 30.2695 56.25ZM34.9517 57V50.4545H35.9574V57H34.9517ZM35.4631 49.3636C35.267 49.3636 35.098 49.2969 34.956 49.1634C34.8168 49.0298 34.7472 48.8693 34.7472 48.6818C34.7472 48.4943 34.8168 48.3338 34.956 48.2003C35.098 48.0668 35.267 48 35.4631 48C35.6591 48 35.8267 48.0668 35.9659 48.2003C36.108 48.3338 36.179 48.4943 36.179 48.6818C36.179 48.8693 36.108 49.0298 35.9659 49.1634C35.8267 49.2969 35.6591 49.3636 35.4631 49.3636ZM38.805 53.0625V57H37.7994V50.4545H38.771V51.4773H38.8562C39.0096 51.1449 39.2425 50.8778 39.555 50.6761C39.8675 50.4716 40.271 50.3693 40.7653 50.3693C41.2085 50.3693 41.5962 50.4602 41.9286 50.642C42.261 50.821 42.5195 51.0938 42.7042 51.4602C42.8888 51.8239 42.9812 52.2841 42.9812 52.8409V57H41.9755V52.9091C41.9755 52.3949 41.842 51.9943 41.5749 51.7074C41.3079 51.4176 40.9414 51.2727 40.4755 51.2727C40.1545 51.2727 39.8675 51.3423 39.6147 51.4815C39.3647 51.6207 39.1673 51.8239 39.0224 52.0909C38.8775 52.358 38.805 52.6818 38.805 53.0625ZM47.5632 57.1364C46.9325 57.1364 46.3885 56.9972 45.9311 56.7188C45.4766 56.4375 45.1257 56.0455 44.8786 55.5426C44.6342 55.0369 44.5121 54.4489 44.5121 53.7784C44.5121 53.108 44.6342 52.517 44.8786 52.0057C45.1257 51.4915 45.4695 51.0909 45.9098 50.804C46.353 50.5142 46.87 50.3693 47.4609 50.3693C47.8018 50.3693 48.1385 50.4261 48.4709 50.5398C48.8033 50.6534 49.1058 50.8381 49.3786 51.0938C49.6513 51.3466 49.8686 51.6818 50.0305 52.0994C50.1925 52.517 50.2734 53.0312 50.2734 53.642V54.0682H45.228V53.1989H49.2507C49.2507 52.8295 49.1768 52.5 49.0291 52.2102C48.8842 51.9205 48.6768 51.6918 48.407 51.5241C48.1399 51.3565 47.8246 51.2727 47.4609 51.2727C47.0604 51.2727 46.7138 51.3722 46.4212 51.571C46.1314 51.767 45.9084 52.0227 45.7521 52.3381C45.5959 52.6534 45.5178 52.9915 45.5178 53.3523V53.9318C45.5178 54.4261 45.603 54.8452 45.7734 55.1889C45.9467 55.5298 46.1868 55.7898 46.4936 55.9688C46.8004 56.1449 47.157 56.233 47.5632 56.233C47.8274 56.233 48.0661 56.196 48.2791 56.1222C48.495 56.0455 48.6811 55.9318 48.8374 55.7812C48.9936 55.6278 49.1143 55.4375 49.1996 55.2102L50.1712 55.483C50.0689 55.8125 49.897 56.1023 49.6555 56.3523C49.4141 56.5994 49.1158 56.7926 48.7607 56.9318C48.4055 57.0682 48.0064 57.1364 47.5632 57.1364ZM51.8033 57V50.4545H52.7749V51.4432H52.843C52.9624 51.1193 53.1783 50.8565 53.4908 50.6548C53.8033 50.4531 54.1555 50.3523 54.5476 50.3523C54.6214 50.3523 54.7138 50.3537 54.8246 50.3565C54.9354 50.3594 55.0192 50.3636 55.076 50.3693V51.392C55.0419 51.3835 54.9638 51.3707 54.8416 51.3537C54.7223 51.3338 54.5959 51.3239 54.4624 51.3239C54.1442 51.3239 53.8601 51.3906 53.6101 51.5241C53.3629 51.6548 53.1669 51.8366 53.022 52.0696C52.88 52.2997 52.8089 52.5625 52.8089 52.858V57H51.8033ZM66.8022 51H65.7454C65.6829 50.696 65.5735 50.429 65.4173 50.1989C65.2638 49.9688 65.0763 49.7756 64.8548 49.6193C64.636 49.4602 64.3931 49.3409 64.1261 49.2614C63.859 49.1818 63.5806 49.142 63.2908 49.142C62.7624 49.142 62.2837 49.2756 61.8548 49.5426C61.4286 49.8097 61.0891 50.2031 60.8363 50.723C60.5863 51.2429 60.4613 51.8807 60.4613 52.6364C60.4613 53.392 60.5863 54.0298 60.8363 54.5497C61.0891 55.0696 61.4286 55.4631 61.8548 55.7301C62.2837 55.9972 62.7624 56.1307 63.2908 56.1307C63.5806 56.1307 63.859 56.0909 64.1261 56.0114C64.3931 55.9318 64.636 55.8139 64.8548 55.6577C65.0763 55.4986 65.2638 55.304 65.4173 55.0739C65.5735 54.8409 65.6829 54.5739 65.7454 54.2727H66.8022C66.7227 54.7187 66.5778 55.1179 66.3675 55.4702C66.1573 55.8224 65.896 56.1222 65.5835 56.3693C65.271 56.6136 64.9201 56.7997 64.5309 56.9276C64.1445 57.0554 63.7312 57.1193 63.2908 57.1193C62.5465 57.1193 61.8846 56.9375 61.305 56.5739C60.7255 56.2102 60.2695 55.6932 59.9371 55.0227C59.6048 54.3523 59.4386 53.5568 59.4386 52.6364C59.4386 51.7159 59.6048 50.9205 59.9371 50.25C60.2695 49.5795 60.7255 49.0625 61.305 48.6989C61.8846 48.3352 62.5465 48.1534 63.2908 48.1534C63.7312 48.1534 64.1445 48.2173 64.5309 48.3452C64.9201 48.473 65.271 48.6605 65.5835 48.9077C65.896 49.152 66.1573 49.4503 66.3675 49.8026C66.5778 50.152 66.7227 50.5511 66.8022 51ZM68.5099 57V48.2727H71.4588C72.1435 48.2727 72.7031 48.3963 73.1378 48.6435C73.5753 48.8878 73.8991 49.2188 74.1094 49.6364C74.3196 50.054 74.4247 50.5199 74.4247 51.0341C74.4247 51.5483 74.3196 52.0156 74.1094 52.4361C73.902 52.8565 73.581 53.1918 73.1463 53.4418C72.7116 53.6889 72.1548 53.8125 71.4759 53.8125H69.3622V52.875H71.4418C71.9105 52.875 72.2869 52.794 72.571 52.6321C72.8551 52.4702 73.0611 52.2514 73.1889 51.9759C73.3196 51.6974 73.3849 51.3835 73.3849 51.0341C73.3849 50.6847 73.3196 50.3722 73.1889 50.0966C73.0611 49.821 72.8537 49.6051 72.5668 49.4489C72.2798 49.2898 71.8991 49.2102 71.4247 49.2102H69.5668V57H68.5099ZM81.8544 48.2727H82.9112V54.0511C82.9112 54.6477 82.7706 55.1804 82.4893 55.6491C82.2109 56.1151 81.8175 56.483 81.3089 56.7528C80.8004 57.0199 80.2038 57.1534 79.5192 57.1534C78.8345 57.1534 78.2379 57.0199 77.7294 56.7528C77.2209 56.483 76.826 56.1151 76.5447 55.6491C76.2663 55.1804 76.1271 54.6477 76.1271 54.0511V48.2727H77.1839V53.9659C77.1839 54.392 77.2777 54.7713 77.4652 55.1037C77.6527 55.4332 77.9197 55.6932 78.2663 55.8835C78.6158 56.071 79.0334 56.1648 79.5192 56.1648C80.005 56.1648 80.4226 56.071 80.772 55.8835C81.1214 55.6932 81.3885 55.4332 81.5732 55.1037C81.7607 54.7713 81.8544 54.392 81.8544 53.9659V48.2727ZM1.05682 74V65.2727H4.00568C4.6875 65.2727 5.24716 65.3892 5.68466 65.6222C6.12216 65.8523 6.44602 66.169 6.65625 66.5724C6.86648 66.9759 6.97159 67.4347 6.97159 67.9489C6.97159 68.4631 6.86648 68.919 6.65625 69.3168C6.44602 69.7145 6.12358 70.027 5.68892 70.2543C5.25426 70.4787 4.69886 70.5909 4.02273 70.5909H1.63636V69.6364H3.98864C4.45455 69.6364 4.82955 69.5682 5.11364 69.4318C5.40057 69.2955 5.60795 69.1023 5.7358 68.8523C5.86648 68.5994 5.93182 68.2983 5.93182 67.9489C5.93182 67.5994 5.86648 67.294 5.7358 67.0327C5.60511 66.7713 5.39631 66.5696 5.10938 66.4276C4.82244 66.2827 4.44318 66.2102 3.97159 66.2102H2.11364V74H1.05682ZM5.16477 70.0795L7.3125 74H6.08523L3.97159 70.0795H5.16477ZM11.2702 74.1364C10.6396 74.1364 10.0955 73.9972 9.63814 73.7188C9.18359 73.4375 8.83274 73.0455 8.58558 72.5426C8.34126 72.0369 8.21911 71.4489 8.21911 70.7784C8.21911 70.108 8.34126 69.517 8.58558 69.0057C8.83274 68.4915 9.17649 68.0909 9.61683 67.804C10.06 67.5142 10.5771 67.3693 11.168 67.3693C11.5089 67.3693 11.8455 67.4261 12.1779 67.5398C12.5103 67.6534 12.8129 67.8381 13.0856 68.0938C13.3583 68.3466 13.5756 68.6818 13.7376 69.0994C13.8995 69.517 13.9805 70.0312 13.9805 70.642V71.0682H8.93501V70.1989H12.9577C12.9577 69.8295 12.8839 69.5 12.7362 69.2102C12.5913 68.9205 12.3839 68.6918 12.114 68.5241C11.8469 68.3565 11.5316 68.2727 11.168 68.2727C10.7674 68.2727 10.4208 68.3722 10.1282 68.571C9.83842 68.767 9.61541 69.0227 9.45916 69.3381C9.30291 69.6534 9.22479 69.9915 9.22479 70.3523V70.9318C9.22479 71.4261 9.31001 71.8452 9.48047 72.1889C9.65376 72.5298 9.89382 72.7898 10.2006 72.9688C10.5075 73.1449 10.864 73.233 11.2702 73.233C11.5344 73.233 11.7731 73.196 11.9862 73.1222C12.2021 73.0455 12.3881 72.9318 12.5444 72.7812C12.7006 72.6278 12.8214 72.4375 12.9066 72.2102L13.8782 72.483C13.7759 72.8125 13.604 73.1023 13.3626 73.3523C13.1211 73.5994 12.8228 73.7926 12.4677 73.9318C12.1126 74.0682 11.7134 74.1364 11.2702 74.1364ZM20.1467 68.9205L19.2433 69.1761C19.1864 69.0256 19.1026 68.8793 18.9918 68.7372C18.8839 68.5923 18.7362 68.473 18.5487 68.3793C18.3612 68.2855 18.1211 68.2386 17.8285 68.2386C17.4279 68.2386 17.0941 68.331 16.8271 68.5156C16.5629 68.6974 16.4308 68.929 16.4308 69.2102C16.4308 69.4602 16.5217 69.6577 16.7035 69.8026C16.8853 69.9474 17.1694 70.0682 17.5558 70.1648L18.5273 70.4034C19.1126 70.5455 19.5487 70.7628 19.8356 71.0554C20.1225 71.3452 20.266 71.7187 20.266 72.1761C20.266 72.5511 20.158 72.8864 19.9421 73.1818C19.729 73.4773 19.4308 73.7102 19.0472 73.8807C18.6637 74.0511 18.2177 74.1364 17.7092 74.1364C17.0415 74.1364 16.489 73.9915 16.0515 73.7017C15.614 73.4119 15.337 72.9886 15.2205 72.4318L16.1751 72.1932C16.266 72.5455 16.4379 72.8097 16.6907 72.9858C16.9464 73.1619 17.2802 73.25 17.6921 73.25C18.1609 73.25 18.533 73.1506 18.8086 72.9517C19.087 72.75 19.2262 72.5085 19.2262 72.2273C19.2262 72 19.1467 71.8097 18.9876 71.6562C18.8285 71.5 18.5842 71.3835 18.2546 71.3068L17.1637 71.0511C16.5643 70.9091 16.1239 70.6889 15.8427 70.3906C15.5643 70.0895 15.4251 69.7131 15.4251 69.2614C15.4251 68.892 15.5288 68.5653 15.7362 68.2812C15.9464 67.9972 16.2319 67.7741 16.5927 67.6122C16.9563 67.4503 17.3683 67.3693 17.8285 67.3693C18.4762 67.3693 18.9847 67.5114 19.354 67.7955C19.7262 68.0795 19.9904 68.4545 20.1467 68.9205ZM24.6264 67.4545V68.3068H21.2344V67.4545H24.6264ZM22.223 65.8864H23.2287V72.125C23.2287 72.4091 23.2699 72.6222 23.3523 72.7642C23.4375 72.9034 23.5455 72.9972 23.6761 73.0455C23.8097 73.0909 23.9503 73.1136 24.098 73.1136C24.2088 73.1136 24.2997 73.108 24.3707 73.0966C24.4418 73.0824 24.4986 73.071 24.5412 73.0625L24.7457 73.9659C24.6776 73.9915 24.5824 74.017 24.4602 74.0426C24.3381 74.071 24.1832 74.0852 23.9957 74.0852C23.7116 74.0852 23.4332 74.0241 23.1605 73.902C22.8906 73.7798 22.6662 73.5938 22.4872 73.3438C22.3111 73.0938 22.223 72.7784 22.223 72.3977V65.8864ZM28.0653 74.1534C27.6506 74.1534 27.2741 74.0753 26.9361 73.919C26.598 73.7599 26.3295 73.5312 26.1307 73.233C25.9318 72.9318 25.8324 72.5682 25.8324 72.142C25.8324 71.767 25.9063 71.4631 26.054 71.2301C26.2017 70.9943 26.3991 70.8097 26.6463 70.6761C26.8935 70.5426 27.1662 70.4432 27.4645 70.3778C27.7656 70.3097 28.0682 70.2557 28.3722 70.2159C28.7699 70.1648 29.0923 70.1264 29.3395 70.1009C29.5895 70.0724 29.7713 70.0256 29.8849 69.9602C30.0014 69.8949 30.0597 69.7812 30.0597 69.6193V69.5852C30.0597 69.1648 29.9446 68.8381 29.7145 68.6051C29.4872 68.3722 29.142 68.2557 28.679 68.2557C28.1989 68.2557 27.8224 68.3608 27.5497 68.571C27.277 68.7812 27.0852 69.0057 26.9744 69.2443L26.0199 68.9034C26.1903 68.5057 26.4176 68.196 26.7017 67.9744C26.9886 67.75 27.3011 67.5937 27.6392 67.5057C27.9801 67.4148 28.3153 67.3693 28.6449 67.3693C28.8551 67.3693 29.0966 67.3949 29.3693 67.446C29.6449 67.4943 29.9105 67.5952 30.1662 67.7486C30.4247 67.902 30.6392 68.1335 30.8097 68.4432C30.9801 68.7528 31.0653 69.1676 31.0653 69.6875V74H30.0597V73.1136H30.0085C29.9403 73.2557 29.8267 73.4077 29.6676 73.5696C29.5085 73.7315 29.2969 73.8693 29.0327 73.983C28.7685 74.0966 28.446 74.1534 28.0653 74.1534ZM28.2188 73.25C28.6165 73.25 28.9517 73.1719 29.2244 73.0156C29.5 72.8594 29.7074 72.6577 29.8466 72.4105C29.9886 72.1634 30.0597 71.9034 30.0597 71.6307V70.7102C30.017 70.7614 29.9233 70.8082 29.7784 70.8509C29.6364 70.8906 29.4716 70.9261 29.2841 70.9574C29.0994 70.9858 28.919 71.0114 28.7429 71.0341C28.5696 71.054 28.429 71.071 28.321 71.0852C28.0597 71.1193 27.8153 71.1747 27.5881 71.2514C27.3636 71.3253 27.1818 71.4375 27.0426 71.5881C26.9063 71.7358 26.8381 71.9375 26.8381 72.1932C26.8381 72.5426 26.9673 72.8068 27.2259 72.9858C27.4872 73.1619 27.8182 73.25 28.2188 73.25ZM32.9009 74V67.4545H33.8725V68.4432H33.9407C34.06 68.1193 34.2759 67.8565 34.5884 67.6548C34.9009 67.4531 35.2532 67.3523 35.6452 67.3523C35.7191 67.3523 35.8114 67.3537 35.9222 67.3565C36.033 67.3594 36.1168 67.3636 36.1737 67.3693V68.392C36.1396 68.3835 36.0614 68.3707 35.9393 68.3537C35.82 68.3338 35.6935 68.3239 35.56 68.3239C35.2418 68.3239 34.9577 68.3906 34.7077 68.5241C34.4606 68.6548 34.2646 68.8366 34.1197 69.0696C33.9776 69.2997 33.9066 69.5625 33.9066 69.858V74H32.9009ZM40.6225 67.4545V68.3068H37.2305V67.4545H40.6225ZM38.2191 65.8864H39.2248V72.125C39.2248 72.4091 39.266 72.6222 39.3484 72.7642C39.4336 72.9034 39.5415 72.9972 39.6722 73.0455C39.8058 73.0909 39.9464 73.1136 40.0941 73.1136C40.2049 73.1136 40.2958 73.108 40.3668 73.0966C40.4379 73.0824 40.4947 73.071 40.5373 73.0625L40.7418 73.9659C40.6737 73.9915 40.5785 74.017 40.4563 74.0426C40.3342 74.071 40.1793 74.0852 39.9918 74.0852C39.7077 74.0852 39.4293 74.0241 39.1566 73.902C38.8867 73.7798 38.6623 73.5938 38.4833 73.3438C38.3072 73.0938 38.2191 72.7784 38.2191 72.3977V65.8864ZM46.6545 68.9205L45.7511 69.1761C45.6942 69.0256 45.6104 68.8793 45.4996 68.7372C45.3917 68.5923 45.244 68.473 45.0565 68.3793C44.869 68.2855 44.6289 68.2386 44.3363 68.2386C43.9357 68.2386 43.6019 68.331 43.3349 68.5156C43.0707 68.6974 42.9386 68.929 42.9386 69.2102C42.9386 69.4602 43.0295 69.6577 43.2113 69.8026C43.3931 69.9474 43.6772 70.0682 44.0636 70.1648L45.0352 70.4034C45.6204 70.5455 46.0565 70.7628 46.3434 71.0554C46.6303 71.3452 46.7738 71.7187 46.7738 72.1761C46.7738 72.5511 46.6658 72.8864 46.4499 73.1818C46.2369 73.4773 45.9386 73.7102 45.555 73.8807C45.1715 74.0511 44.7255 74.1364 44.217 74.1364C43.5494 74.1364 42.9968 73.9915 42.5593 73.7017C42.1218 73.4119 41.8448 72.9886 41.7283 72.4318L42.6829 72.1932C42.7738 72.5455 42.9457 72.8097 43.1985 72.9858C43.4542 73.1619 43.788 73.25 44.1999 73.25C44.6687 73.25 45.0408 73.1506 45.3164 72.9517C45.5948 72.75 45.734 72.5085 45.734 72.2273C45.734 72 45.6545 71.8097 45.4954 71.6562C45.3363 71.5 45.092 71.3835 44.7624 71.3068L43.6715 71.0511C43.0721 70.9091 42.6317 70.6889 42.3505 70.3906C42.0721 70.0895 41.9329 69.7131 41.9329 69.2614C41.9329 68.892 42.0366 68.5653 42.244 68.2812C42.4542 67.9972 42.7397 67.7741 43.1005 67.6122C43.4641 67.4503 43.8761 67.3693 44.3363 67.3693C44.984 67.3693 45.4925 67.5114 45.8619 67.7955C46.234 68.0795 46.4982 68.4545 46.6545 68.9205ZM1.41477 82.2727L4.00568 89.6193H4.10795L6.69886 82.2727H7.80682L4.60227 91H3.51136L0.306818 82.2727H1.41477ZM11.0795 91.1364C10.4886 91.1364 9.97017 90.9957 9.52415 90.7145C9.08097 90.4332 8.73438 90.0398 8.48438 89.5341C8.23722 89.0284 8.11364 88.4375 8.11364 87.7614C8.11364 87.0795 8.23722 86.4844 8.48438 85.9759C8.73438 85.4673 9.08097 85.0724 9.52415 84.7912C9.97017 84.5099 10.4886 84.3693 11.0795 84.3693C11.6705 84.3693 12.1875 84.5099 12.6307 84.7912C13.0767 85.0724 13.4233 85.4673 13.6705 85.9759C13.9205 86.4844 14.0455 87.0795 14.0455 87.7614C14.0455 88.4375 13.9205 89.0284 13.6705 89.5341C13.4233 90.0398 13.0767 90.4332 12.6307 90.7145C12.1875 90.9957 11.6705 91.1364 11.0795 91.1364ZM11.0795 90.233C11.5284 90.233 11.8977 90.1179 12.1875 89.8878C12.4773 89.6577 12.6918 89.3551 12.831 88.9801C12.9702 88.6051 13.0398 88.1989 13.0398 87.7614C13.0398 87.3239 12.9702 86.9162 12.831 86.5384C12.6918 86.1605 12.4773 85.8551 12.1875 85.6222C11.8977 85.3892 11.5284 85.2727 11.0795 85.2727C10.6307 85.2727 10.2614 85.3892 9.97159 85.6222C9.68182 85.8551 9.46733 86.1605 9.32812 86.5384C9.18892 86.9162 9.11932 87.3239 9.11932 87.7614C9.11932 88.1989 9.18892 88.6051 9.32812 88.9801C9.46733 89.3551 9.68182 89.6577 9.97159 89.8878C10.2614 90.1179 10.6307 90.233 11.0795 90.233ZM16.5863 82.2727V91H15.5806V82.2727H16.5863ZM22.5533 88.3239V84.4545H23.5589V91H22.5533V89.892H22.4851C22.3317 90.2244 22.093 90.5071 21.7692 90.7401C21.4453 90.9702 21.0362 91.0852 20.5419 91.0852C20.1328 91.0852 19.7692 90.9957 19.451 90.8168C19.1328 90.6349 18.8828 90.3622 18.701 89.9986C18.5192 89.6321 18.4283 89.1705 18.4283 88.6136V84.4545H19.4339V88.5455C19.4339 89.0227 19.5675 89.4034 19.8345 89.6875C20.1044 89.9716 20.4482 90.1136 20.8658 90.1136C21.1158 90.1136 21.37 90.0497 21.6286 89.9219C21.8899 89.794 22.1087 89.598 22.2848 89.3338C22.4638 89.0696 22.5533 88.733 22.5533 88.3239ZM25.4009 91V84.4545H26.3725V85.4773H26.4577C26.5941 85.1278 26.8143 84.8565 27.1183 84.6634C27.4222 84.4673 27.7873 84.3693 28.2134 84.3693C28.6452 84.3693 29.0046 84.4673 29.2915 84.6634C29.5813 84.8565 29.8072 85.1278 29.9691 85.4773H30.0373C30.2049 85.1392 30.4563 84.8707 30.7915 84.6719C31.1268 84.4702 31.5288 84.3693 31.9975 84.3693C32.5827 84.3693 33.0614 84.5526 33.4336 84.919C33.8058 85.2827 33.9918 85.8494 33.9918 86.6193V91H32.9862V86.6193C32.9862 86.1364 32.854 85.7912 32.5898 85.5838C32.3256 85.3764 32.0146 85.2727 31.6566 85.2727C31.1964 85.2727 30.8398 85.4119 30.587 85.6903C30.3342 85.9659 30.2077 86.3153 30.2077 86.7386V91H29.185V86.517C29.185 86.1449 29.0643 85.8452 28.8228 85.6179C28.5813 85.3878 28.2702 85.2727 27.8896 85.2727C27.6282 85.2727 27.3839 85.3423 27.1566 85.4815C26.9322 85.6207 26.7504 85.8139 26.6112 86.0611C26.4748 86.3054 26.4066 86.5881 26.4066 86.9091V91H25.4009ZM38.5749 91.1364C37.9442 91.1364 37.4002 90.9972 36.9428 90.7188C36.4883 90.4375 36.1374 90.0455 35.8903 89.5426C35.646 89.0369 35.5238 88.4489 35.5238 87.7784C35.5238 87.108 35.646 86.517 35.8903 86.0057C36.1374 85.4915 36.4812 85.0909 36.9215 84.804C37.3647 84.5142 37.8817 84.3693 38.4727 84.3693C38.8136 84.3693 39.1502 84.4261 39.4826 84.5398C39.815 84.6534 40.1175 84.8381 40.3903 85.0938C40.663 85.3466 40.8803 85.6818 41.0423 86.0994C41.2042 86.517 41.2852 87.0312 41.2852 87.642V88.0682H36.2397V87.1989H40.2624C40.2624 86.8295 40.1886 86.5 40.0408 86.2102C39.896 85.9205 39.6886 85.6918 39.4187 85.5241C39.1516 85.3565 38.8363 85.2727 38.4727 85.2727C38.0721 85.2727 37.7255 85.3722 37.4329 85.571C37.1431 85.767 36.9201 86.0227 36.7638 86.3381C36.6076 86.6534 36.5295 86.9915 36.5295 87.3523V87.9318C36.5295 88.4261 36.6147 88.8452 36.7852 89.1889C36.9585 89.5298 37.1985 89.7898 37.5053 89.9688C37.8121 90.1449 38.1687 90.233 38.5749 90.233C38.8391 90.233 39.0778 90.196 39.2908 90.1222C39.5067 90.0455 39.6928 89.9318 39.8491 89.7812C40.0053 89.6278 40.1261 89.4375 40.2113 89.2102L41.1829 89.483C41.0806 89.8125 40.9087 90.1023 40.6673 90.3523C40.4258 90.5994 40.1275 90.7926 39.7724 90.9318C39.4173 91.0682 39.0181 91.1364 38.5749 91.1364ZM47.3832 82.2727V91H46.3263V82.2727H47.3832ZM52.451 81.8636L49.6385 92.3125H48.718L51.5305 81.8636H52.451ZM61.1431 86.6364C61.1431 87.5568 60.9769 88.3523 60.6445 89.0227C60.3121 89.6932 59.8562 90.2102 59.2766 90.5739C58.6971 90.9375 58.0352 91.1193 57.2908 91.1193C56.5465 91.1193 55.8846 90.9375 55.305 90.5739C54.7255 90.2102 54.2695 89.6932 53.9371 89.0227C53.6048 88.3523 53.4386 87.5568 53.4386 86.6364C53.4386 85.7159 53.6048 84.9205 53.9371 84.25C54.2695 83.5795 54.7255 83.0625 55.305 82.6989C55.8846 82.3352 56.5465 82.1534 57.2908 82.1534C58.0352 82.1534 58.6971 82.3352 59.2766 82.6989C59.8562 83.0625 60.3121 83.5795 60.6445 84.25C60.9769 84.9205 61.1431 85.7159 61.1431 86.6364ZM60.1204 86.6364C60.1204 85.8807 59.994 85.2429 59.7411 84.723C59.4911 84.2031 59.1516 83.8097 58.7227 83.5426C58.2965 83.2756 57.8192 83.142 57.2908 83.142C56.7624 83.142 56.2837 83.2756 55.8548 83.5426C55.4286 83.8097 55.0891 84.2031 54.8363 84.723C54.5863 85.2429 54.4613 85.8807 54.4613 86.6364C54.4613 87.392 54.5863 88.0298 54.8363 88.5497C55.0891 89.0696 55.4286 89.4631 55.8548 89.7301C56.2837 89.9972 56.7624 90.1307 57.2908 90.1307C57.8192 90.1307 58.2965 89.9972 58.7227 89.7301C59.1516 89.4631 59.4911 89.0696 59.7411 88.5497C59.994 88.0298 60.1204 87.392 60.1204 86.6364ZM7.97727 99.2727V108H6.95455L2.19886 101.148H2.11364V108H1.05682V99.2727H2.07955L6.85227 106.142H6.9375V99.2727H7.97727ZM12.6999 108.136C12.0692 108.136 11.5252 107.997 11.0678 107.719C10.6133 107.438 10.2624 107.045 10.0153 106.543C9.77095 106.037 9.64879 105.449 9.64879 104.778C9.64879 104.108 9.77095 103.517 10.0153 103.006C10.2624 102.491 10.6062 102.091 11.0465 101.804C11.4897 101.514 12.0067 101.369 12.5977 101.369C12.9386 101.369 13.2752 101.426 13.6076 101.54C13.94 101.653 14.2425 101.838 14.5153 102.094C14.788 102.347 15.0053 102.682 15.1673 103.099C15.3292 103.517 15.4102 104.031 15.4102 104.642V105.068H10.3647V104.199H14.3874C14.3874 103.83 14.3136 103.5 14.1658 103.21C14.021 102.92 13.8136 102.692 13.5437 102.524C13.2766 102.357 12.9613 102.273 12.5977 102.273C12.1971 102.273 11.8505 102.372 11.5579 102.571C11.2681 102.767 11.0451 103.023 10.8888 103.338C10.7326 103.653 10.6545 103.991 10.6545 104.352V104.932C10.6545 105.426 10.7397 105.845 10.9102 106.189C11.0835 106.53 11.3235 106.79 11.6303 106.969C11.9371 107.145 12.2937 107.233 12.6999 107.233C12.9641 107.233 13.2028 107.196 13.4158 107.122C13.6317 107.045 13.8178 106.932 13.9741 106.781C14.1303 106.628 14.2511 106.437 14.3363 106.21L15.3079 106.483C15.2056 106.812 15.0337 107.102 14.7923 107.352C14.5508 107.599 14.2525 107.793 13.8974 107.932C13.5423 108.068 13.1431 108.136 12.6999 108.136ZM19.7866 101.455V102.307H16.3945V101.455H19.7866ZM17.3832 99.8864H18.3888V106.125C18.3888 106.409 18.43 106.622 18.5124 106.764C18.5977 106.903 18.7056 106.997 18.8363 107.045C18.9698 107.091 19.1104 107.114 19.2582 107.114C19.369 107.114 19.4599 107.108 19.5309 107.097C19.6019 107.082 19.6587 107.071 19.7013 107.062L19.9059 107.966C19.8377 107.991 19.7425 108.017 19.6204 108.043C19.4982 108.071 19.3434 108.085 19.1559 108.085C18.8718 108.085 18.5934 108.024 18.3207 107.902C18.0508 107.78 17.8263 107.594 17.6474 107.344C17.4712 107.094 17.3832 106.778 17.3832 106.398V99.8864ZM25.68 99.2727V108H24.6744V99.2727H25.68ZM29.4482 108.153C29.0334 108.153 28.657 108.075 28.3189 107.919C27.9808 107.76 27.7124 107.531 27.5135 107.233C27.3146 106.932 27.2152 106.568 27.2152 106.142C27.2152 105.767 27.2891 105.463 27.4368 105.23C27.5845 104.994 27.782 104.81 28.0291 104.676C28.2763 104.543 28.549 104.443 28.8473 104.378C29.1484 104.31 29.451 104.256 29.755 104.216C30.1527 104.165 30.4751 104.126 30.7223 104.101C30.9723 104.072 31.1541 104.026 31.2678 103.96C31.3842 103.895 31.4425 103.781 31.4425 103.619V103.585C31.4425 103.165 31.3274 102.838 31.0973 102.605C30.87 102.372 30.5249 102.256 30.0618 102.256C29.5817 102.256 29.2053 102.361 28.9325 102.571C28.6598 102.781 28.468 103.006 28.3572 103.244L27.4027 102.903C27.5732 102.506 27.8004 102.196 28.0845 101.974C28.3714 101.75 28.6839 101.594 29.022 101.506C29.3629 101.415 29.6982 101.369 30.0277 101.369C30.2379 101.369 30.4794 101.395 30.7521 101.446C31.0277 101.494 31.2933 101.595 31.549 101.749C31.8075 101.902 32.022 102.134 32.1925 102.443C32.3629 102.753 32.4482 103.168 32.4482 103.688V108H31.4425V107.114H31.3913C31.3232 107.256 31.2095 107.408 31.0504 107.57C30.8913 107.732 30.6797 107.869 30.4155 107.983C30.1513 108.097 29.8288 108.153 29.4482 108.153ZM29.6016 107.25C29.9993 107.25 30.3345 107.172 30.6072 107.016C30.8828 106.859 31.0902 106.658 31.2294 106.411C31.3714 106.163 31.4425 105.903 31.4425 105.631V104.71C31.3999 104.761 31.3061 104.808 31.1612 104.851C31.0192 104.891 30.8544 104.926 30.6669 104.957C30.4822 104.986 30.3018 105.011 30.1257 105.034C29.9524 105.054 29.8118 105.071 29.7038 105.085C29.4425 105.119 29.1982 105.175 28.9709 105.251C28.7464 105.325 28.5646 105.437 28.4254 105.588C28.2891 105.736 28.2209 105.937 28.2209 106.193C28.2209 106.543 28.3501 106.807 28.6087 106.986C28.87 107.162 29.201 107.25 29.6016 107.25ZM37.1303 101.455V102.307H33.7383V101.455H37.1303ZM34.7269 99.8864H35.7326V106.125C35.7326 106.409 35.7738 106.622 35.8562 106.764C35.9414 106.903 36.0494 106.997 36.18 107.045C36.3136 107.091 36.4542 107.114 36.6019 107.114C36.7127 107.114 36.8036 107.108 36.8746 107.097C36.9457 107.082 37.0025 107.071 37.0451 107.062L37.2496 107.966C37.1815 107.991 37.0863 108.017 36.9641 108.043C36.842 108.071 36.6871 108.085 36.4996 108.085C36.2156 108.085 35.9371 108.024 35.6644 107.902C35.3945 107.78 35.1701 107.594 34.9911 107.344C34.815 107.094 34.7269 106.778 34.7269 106.398V99.8864ZM41.3171 108.136C40.6864 108.136 40.1424 107.997 39.685 107.719C39.2305 107.438 38.8796 107.045 38.6325 106.543C38.3881 106.037 38.266 105.449 38.266 104.778C38.266 104.108 38.3881 103.517 38.6325 103.006C38.8796 102.491 39.2234 102.091 39.6637 101.804C40.1069 101.514 40.6239 101.369 41.2148 101.369C41.5558 101.369 41.8924 101.426 42.2248 101.54C42.5572 101.653 42.8597 101.838 43.1325 102.094C43.4052 102.347 43.6225 102.682 43.7844 103.099C43.9464 103.517 44.0273 104.031 44.0273 104.642V105.068H38.9819V104.199H43.0046C43.0046 103.83 42.9308 103.5 42.783 103.21C42.6381 102.92 42.4308 102.692 42.1609 102.524C41.8938 102.357 41.5785 102.273 41.2148 102.273C40.8143 102.273 40.4677 102.372 40.1751 102.571C39.8853 102.767 39.6623 103.023 39.506 103.338C39.3498 103.653 39.2717 103.991 39.2717 104.352V104.932C39.2717 105.426 39.3569 105.845 39.5273 106.189C39.7006 106.53 39.9407 106.79 40.2475 106.969C40.5543 107.145 40.9109 107.233 41.3171 107.233C41.5813 107.233 41.82 107.196 42.033 107.122C42.2489 107.045 42.435 106.932 42.5913 106.781C42.7475 106.628 42.8683 106.437 42.9535 106.21L43.9251 106.483C43.8228 106.812 43.6509 107.102 43.4094 107.352C43.168 107.599 42.8697 107.793 42.5146 107.932C42.1594 108.068 41.7603 108.136 41.3171 108.136ZM46.5629 104.062V108H45.5572V101.455H46.5288V102.477H46.614C46.7674 102.145 47.0004 101.878 47.3129 101.676C47.6254 101.472 48.0288 101.369 48.5231 101.369C48.9663 101.369 49.354 101.46 49.6864 101.642C50.0188 101.821 50.2773 102.094 50.462 102.46C50.6467 102.824 50.739 103.284 50.739 103.841V108H49.7333V103.909C49.7333 103.395 49.5998 102.994 49.3327 102.707C49.0657 102.418 48.6992 102.273 48.2333 102.273C47.9123 102.273 47.6254 102.342 47.3725 102.482C47.1225 102.621 46.9251 102.824 46.7802 103.091C46.6353 103.358 46.5629 103.682 46.5629 104.062ZM55.2358 108.136C54.6222 108.136 54.0938 107.991 53.6506 107.702C53.2074 107.412 52.8665 107.013 52.6278 106.504C52.3892 105.996 52.2699 105.415 52.2699 104.761C52.2699 104.097 52.392 103.51 52.6364 103.001C52.8835 102.49 53.2273 102.091 53.6676 101.804C54.1108 101.514 54.6278 101.369 55.2188 101.369C55.679 101.369 56.0938 101.455 56.4631 101.625C56.8324 101.795 57.1349 102.034 57.3707 102.341C57.6065 102.648 57.7528 103.006 57.8097 103.415H56.804C56.7273 103.116 56.5568 102.852 56.2926 102.622C56.0313 102.389 55.679 102.273 55.2358 102.273C54.8438 102.273 54.5 102.375 54.2045 102.58C53.9119 102.781 53.6832 103.067 53.5185 103.436C53.3565 103.803 53.2756 104.233 53.2756 104.727C53.2756 105.233 53.3551 105.673 53.5142 106.048C53.6761 106.423 53.9034 106.714 54.196 106.922C54.4915 107.129 54.8381 107.233 55.2358 107.233C55.4972 107.233 55.7344 107.188 55.9474 107.097C56.1605 107.006 56.3409 106.875 56.4886 106.705C56.6364 106.534 56.7415 106.33 56.804 106.091H57.8097C57.7528 106.477 57.6122 106.825 57.3878 107.135C57.1662 107.442 56.8722 107.686 56.5057 107.868C56.142 108.047 55.7188 108.136 55.2358 108.136ZM59.9276 110.455C59.7571 110.455 59.6051 110.44 59.4716 110.412C59.3381 110.386 59.2457 110.361 59.1946 110.335L59.4503 109.449C59.6946 109.511 59.9105 109.534 60.098 109.517C60.2855 109.5 60.4517 109.416 60.5966 109.266C60.7443 109.118 60.8793 108.878 61.0014 108.545L61.1889 108.034L58.7685 101.455H59.8594L61.6662 106.67H61.7344L63.5412 101.455H64.6321L61.8537 108.955C61.7287 109.293 61.5739 109.572 61.3892 109.794C61.2045 110.018 60.9901 110.185 60.7457 110.293C60.5043 110.401 60.2315 110.455 59.9276 110.455Z" fill="black"/>
<path d="M106.909 82L108.505 85.6495L112.818 87L108.505 88.3505L106.909 92L105.313 88.3505L101 87L105.313 85.6495L106.909 82Z" fill="#0038FE"/>
<path d="M106.909 100L108.038 103.346L112.027 102.5L109.166 105L112.027 107.5L108.038 106.654L106.909 110L105.781 106.654L101.792 107.5L104.652 105L101.792 102.5L105.781 103.346L106.909 100Z" fill="#0038FE"/>
<path d="M128.909 100L130.038 103.346L134.027 102.5L131.166 105L134.027 107.5L130.038 106.654L128.909 110L127.781 106.654L123.792 107.5L126.652 105L123.792 102.5L127.781 103.346L128.909 100Z" fill="#8FCAEC"/>
<path d="M150.909 100L152.038 103.346L156.027 102.5L153.166 105L156.027 107.5L152.038 106.654L150.909 110L149.781 106.654L145.792 107.5L148.652 105L145.792 102.5L149.781 103.346L150.909 100Z" fill="#ECA48F"/>
<path d="M169.909 100L171.038 103.346L175.027 102.5L172.166 105L175.027 107.5L171.038 106.654L169.909 110L168.781 106.654L164.792 107.5L167.652 105L164.792 102.5L168.781 103.346L169.909 100Z" fill="#E75225"/>
<path d="M169.909 82L171.505 85.6495L175.818 87L171.505 88.3505L169.909 92L168.313 88.3505L164 87L168.313 85.6495L169.909 82Z" fill="#E75225"/>
<path d="M150.909 82L152.505 85.6495L156.818 87L152.505 88.3505L150.909 92L149.313 88.3505L145 87L149.313 85.6495L150.909 82Z" fill="#F1BFB0"/>
<path d="M128.909 82L130.505 85.6495L134.818 87L130.505 88.3505L128.909 92L127.313 88.3505L123 87L127.313 85.6495L128.909 82Z" fill="#8FCAEC"/>
<circle cx="394" cy="70" r="5" fill="#0038FE"/>
<circle cx="441" cy="87" r="5" fill="#8FCAEC"/>
<circle cx="376" cy="82" r="5" fill="#ECA48F"/>
<circle cx="409" cy="106" r="5" fill="#E75225"/>
<path d="M426 72L430.33 79.5H421.67L426 72Z" fill="#0038FE"/>
<path d="M399 49L403.33 56.5H394.67L399 49Z" fill="#8FCAEC"/>
<path d="M418 57L422.33 64.5H413.67L418 57Z" fill="#ECA48F"/>
<path d="M443 35L447.33 42.5H438.67L443 35Z" fill="#E75225"/>
<rect x="378" y="36" width="10" height="10" fill="#0038FE"/>
<rect x="406" y="79" width="10" height="10" fill="#8FCAEC"/>
<rect x="453" y="78" width="10" height="10" fill="#ECA48F"/>
<rect x="369" y="57" width="10" height="10" fill="#E75225"/>
<path d="M443.909 50L445.505 53.6495L449.818 55L445.505 56.3505L443.909 60L442.313 56.3505L438 55L442.313 53.6495L443.909 50Z" fill="#0038FE"/>
<path d="M380.909 101L382.038 104.346L386.027 103.5L383.166 106L386.027 108.5L382.038 107.654L380.909 111L379.781 107.654L375.792 108.5L378.652 106L375.792 103.5L379.781 104.346L380.909 101Z" fill="#0038FE"/>
<path d="M425.909 91L427.038 94.346L431.027 93.5L428.166 96L431.027 98.5L427.038 97.654L425.909 101L424.781 97.654L420.792 98.5L423.652 96L420.792 93.5L424.781 94.346L425.909 91Z" fill="#8FCAEC"/>
<path d="M445.909 67L447.038 70.346L451.027 69.5L448.166 72L451.027 74.5L447.038 73.654L445.909 77L444.781 73.654L440.792 74.5L443.652 72L440.792 69.5L444.781 70.346L445.909 67Z" fill="#E75225"/>
<path d="M402.909 29L404.038 32.346L408.027 31.5L405.166 34L408.027 36.5L404.038 35.654L402.909 39L401.781 35.654L397.792 36.5L400.652 34L397.792 31.5L401.781 32.346L402.909 29Z" fill="#ECA48F"/>
<path d="M421.909 35L423.505 38.6495L427.818 40L423.505 41.3505L421.909 45L420.313 41.3505L416 40L420.313 38.6495L421.909 35Z" fill="#E75225"/>
<path d="M446.909 101L448.505 104.65L452.818 106L448.505 107.35L446.909 111L445.313 107.35L441 106L445.313 104.65L446.909 101Z" fill="#F1BFB0"/>
<path d="M393.909 88L395.505 91.6495L399.818 93L395.505 94.3505L393.909 98L392.313 94.3505L388 93L392.313 91.6495L393.909 88Z" fill="#8FCAEC"/>
<path d="M370.979 14H369.348L373.012 3.81818H374.787L378.451 14H376.82L373.942 5.66761H373.862L370.979 14ZM371.252 10.0128H376.542V11.3054H371.252V10.0128ZM381.289 3.81818V14H379.802V3.81818H381.289ZM386.58 14.1541C385.827 14.1541 385.179 13.9934 384.636 13.6719C384.095 13.3471 383.678 12.8913 383.383 12.3047C383.091 11.7147 382.945 11.0237 382.945 10.2315C382.945 9.44934 383.091 8.75994 383.383 8.16335C383.678 7.56676 384.089 7.10109 384.616 6.76633C385.146 6.43158 385.766 6.2642 386.475 6.2642C386.906 6.2642 387.324 6.33546 387.728 6.47798C388.132 6.6205 388.495 6.84422 388.817 7.14915C389.138 7.45407 389.392 7.85014 389.577 8.33736C389.763 8.82126 389.856 9.40956 389.856 10.1023V10.6293H383.786V9.51562H388.399C388.399 9.12453 388.32 8.77817 388.161 8.47656C388.001 8.17164 387.778 7.93134 387.489 7.75568C387.204 7.58002 386.87 7.49219 386.485 7.49219C386.067 7.49219 385.703 7.59493 385.391 7.80043C385.083 8.0026 384.844 8.26776 384.675 8.59588C384.51 8.92069 384.427 9.27367 384.427 9.65483V10.5249C384.427 11.0353 384.516 11.4695 384.695 11.8274C384.878 12.1854 385.131 12.4588 385.456 12.6477C385.781 12.8333 386.16 12.9261 386.594 12.9261C386.876 12.9261 387.133 12.8864 387.365 12.8068C387.597 12.724 387.798 12.6013 387.967 12.4389C388.136 12.2765 388.265 12.076 388.354 11.8374L389.761 12.0909C389.649 12.5052 389.446 12.8681 389.155 13.1797C388.866 13.4879 388.504 13.7282 388.066 13.9006C387.632 14.0696 387.136 14.1541 386.58 14.1541ZM391.505 14V6.36364H392.942V7.5767H393.021C393.161 7.16572 393.406 6.84257 393.757 6.60724C394.112 6.36861 394.513 6.24929 394.96 6.24929C395.053 6.24929 395.163 6.2526 395.289 6.25923C395.418 6.26586 395.519 6.27415 395.592 6.28409V7.70597C395.532 7.68939 395.426 7.67116 395.274 7.65128C395.121 7.62808 394.969 7.61648 394.816 7.61648C394.465 7.61648 394.152 7.69105 393.877 7.8402C393.605 7.98603 393.389 8.18987 393.23 8.4517C393.071 8.71023 392.992 9.00521 392.992 9.33665V14H391.505ZM400.894 6.36364V7.55682H396.723V6.36364H400.894ZM397.841 4.53409H399.328V11.7578C399.328 12.0462 399.371 12.2633 399.457 12.4091C399.543 12.5516 399.654 12.6494 399.79 12.7024C399.93 12.7521 400.08 12.777 400.243 12.777C400.362 12.777 400.466 12.7687 400.556 12.7521C400.645 12.7356 400.715 12.7223 400.765 12.7124L401.033 13.9403C400.947 13.9735 400.824 14.0066 400.665 14.0398C400.506 14.0762 400.307 14.0961 400.069 14.0994C399.678 14.1061 399.313 14.0365 398.975 13.8906C398.637 13.7448 398.363 13.5194 398.155 13.2145C397.946 12.9096 397.841 12.5268 397.841 12.0661V4.53409ZM411.966 8.22798L410.618 8.46662C410.562 8.29427 410.473 8.13021 410.35 7.97443C410.231 7.81865 410.068 7.69105 409.863 7.59162C409.657 7.49219 409.4 7.44247 409.092 7.44247C408.671 7.44247 408.32 7.53693 408.038 7.72585C407.756 7.91146 407.616 8.15175 407.616 8.44673C407.616 8.70194 407.71 8.90743 407.899 9.06321C408.088 9.21899 408.393 9.34659 408.814 9.44602L410.027 9.72443C410.729 9.88684 411.253 10.1371 411.598 10.4751C411.943 10.8132 412.115 11.2524 412.115 11.7926C412.115 12.25 411.982 12.6577 411.717 13.0156C411.455 13.3703 411.089 13.6487 410.618 13.8509C410.151 14.053 409.609 14.1541 408.993 14.1541C408.138 14.1541 407.44 13.9718 406.9 13.6072C406.359 13.2393 406.028 12.7173 405.905 12.0412L407.342 11.8224C407.432 12.197 407.616 12.4804 407.894 12.6726C408.172 12.8615 408.535 12.956 408.983 12.956C409.47 12.956 409.859 12.8549 410.151 12.6527C410.443 12.4472 410.589 12.197 410.589 11.902C410.589 11.6634 410.499 11.4628 410.32 11.3004C410.144 11.138 409.874 11.0154 409.51 10.9325L408.217 10.6491C407.505 10.4867 406.978 10.2282 406.636 9.87358C406.298 9.51894 406.129 9.06984 406.129 8.52628C406.129 8.07552 406.255 7.68111 406.507 7.34304C406.759 7.00497 407.107 6.74148 407.551 6.55256C407.995 6.36032 408.504 6.2642 409.077 6.2642C409.903 6.2642 410.552 6.44318 411.026 6.80114C411.5 7.15578 411.813 7.63139 411.966 8.22798ZM417.314 6.36364V7.55682H413.143V6.36364H417.314ZM414.261 4.53409H415.748V11.7578C415.748 12.0462 415.791 12.2633 415.877 12.4091C415.963 12.5516 416.074 12.6494 416.21 12.7024C416.349 12.7521 416.5 12.777 416.663 12.777C416.782 12.777 416.886 12.7687 416.976 12.7521C417.065 12.7356 417.135 12.7223 417.185 12.7124L417.453 13.9403C417.367 13.9735 417.244 14.0066 417.085 14.0398C416.926 14.0762 416.727 14.0961 416.489 14.0994C416.098 14.1061 415.733 14.0365 415.395 13.8906C415.057 13.7448 414.783 13.5194 414.575 13.2145C414.366 12.9096 414.261 12.5268 414.261 12.0661V4.53409ZM418.958 14V6.36364H420.395V7.5767H420.475C420.614 7.16572 420.859 6.84257 421.21 6.60724C421.565 6.36861 421.966 6.24929 422.414 6.24929C422.506 6.24929 422.616 6.2526 422.742 6.25923C422.871 6.26586 422.972 6.27415 423.045 6.28409V7.70597C422.985 7.68939 422.879 7.67116 422.727 7.65128C422.574 7.62808 422.422 7.61648 422.269 7.61648C421.918 7.61648 421.605 7.69105 421.33 7.8402C421.058 7.98603 420.843 8.18987 420.683 8.4517C420.524 8.71023 420.445 9.00521 420.445 9.33665V14H418.958ZM427.349 14.1541C426.597 14.1541 425.949 13.9934 425.405 13.6719C424.865 13.3471 424.447 12.8913 424.152 12.3047C423.861 11.7147 423.715 11.0237 423.715 10.2315C423.715 9.44934 423.861 8.75994 424.152 8.16335C424.447 7.56676 424.858 7.10109 425.385 6.76633C425.916 6.43158 426.535 6.2642 427.245 6.2642C427.676 6.2642 428.093 6.33546 428.498 6.47798C428.902 6.6205 429.265 6.84422 429.586 7.14915C429.908 7.45407 430.161 7.85014 430.347 8.33736C430.533 8.82126 430.625 9.40956 430.625 10.1023V10.6293H424.555V9.51562H429.169C429.169 9.12453 429.089 8.77817 428.93 8.47656C428.771 8.17164 428.547 7.93134 428.259 7.75568C427.974 7.58002 427.639 7.49219 427.255 7.49219C426.837 7.49219 426.472 7.59493 426.161 7.80043C425.853 8.0026 425.614 8.26776 425.445 8.59588C425.279 8.92069 425.196 9.27367 425.196 9.65483V10.5249C425.196 11.0353 425.286 11.4695 425.465 11.8274C425.647 12.1854 425.901 12.4588 426.225 12.6477C426.55 12.8333 426.93 12.9261 427.364 12.9261C427.646 12.9261 427.903 12.8864 428.135 12.8068C428.367 12.724 428.567 12.6013 428.736 12.4389C428.905 12.2765 429.034 12.076 429.124 11.8374L430.531 12.0909C430.418 12.5052 430.216 12.8681 429.924 13.1797C429.636 13.4879 429.273 13.7282 428.836 13.9006C428.401 14.0696 427.906 14.1541 427.349 14.1541ZM434.497 14.169C434.013 14.169 433.576 14.0795 433.184 13.9006C432.793 13.7183 432.483 13.4548 432.255 13.1101C432.029 12.7654 431.917 12.3428 431.917 11.8423C431.917 11.4115 432 11.0568 432.165 10.7784C432.331 10.5 432.555 10.2796 432.836 10.1172C433.118 9.95478 433.433 9.83215 433.781 9.74929C434.129 9.66643 434.484 9.60346 434.845 9.56037C435.302 9.50734 435.674 9.46425 435.959 9.43111C436.244 9.39465 436.451 9.33665 436.58 9.2571C436.709 9.17756 436.774 9.0483 436.774 8.86932V8.83452C436.774 8.40033 436.651 8.06392 436.406 7.82528C436.164 7.58665 435.803 7.46733 435.322 7.46733C434.822 7.46733 434.427 7.57836 434.139 7.80043C433.854 8.01918 433.657 8.26278 433.547 8.53125L432.15 8.21307C432.316 7.74905 432.558 7.37453 432.876 7.08949C433.198 6.80114 433.567 6.59233 433.985 6.46307C434.403 6.33049 434.842 6.2642 435.302 6.2642C435.607 6.2642 435.93 6.30066 436.272 6.37358C436.617 6.44318 436.938 6.57244 437.236 6.76136C437.538 6.95028 437.785 7.22041 437.977 7.57173C438.169 7.91974 438.265 8.37216 438.265 8.92898V14H436.814V12.956H436.754C436.658 13.1482 436.514 13.3371 436.322 13.5227C436.129 13.7083 435.882 13.8625 435.581 13.9851C435.279 14.1077 434.918 14.169 434.497 14.169ZM434.82 12.9759C435.231 12.9759 435.582 12.8946 435.874 12.7322C436.169 12.5698 436.393 12.3577 436.545 12.0959C436.701 11.8307 436.779 11.5473 436.779 11.2457V10.2614C436.726 10.3144 436.623 10.3641 436.471 10.4105C436.322 10.4536 436.151 10.4917 435.959 10.5249C435.766 10.5547 435.579 10.5829 435.397 10.6094C435.215 10.6326 435.062 10.6525 434.939 10.669C434.651 10.7055 434.388 10.7668 434.149 10.853C433.914 10.9392 433.725 11.0634 433.582 11.2259C433.443 11.3849 433.373 11.5971 433.373 11.8622C433.373 12.2301 433.509 12.5085 433.781 12.6974C434.053 12.883 434.399 12.9759 434.82 12.9759ZM440.245 14V6.36364H441.672V7.60653H441.767C441.926 7.18561 442.186 6.85748 442.547 6.62216C442.908 6.38352 443.341 6.2642 443.845 6.2642C444.355 6.2642 444.783 6.38352 445.127 6.62216C445.475 6.8608 445.732 7.18892 445.898 7.60653H445.978C446.16 7.19886 446.45 6.87405 446.848 6.6321C447.245 6.38684 447.719 6.2642 448.27 6.2642C448.962 6.2642 449.527 6.4813 449.965 6.91548C450.406 7.34967 450.626 8.00426 450.626 8.87926V14H449.14V9.01847C449.14 8.50142 448.999 8.12689 448.717 7.89489C448.435 7.66288 448.099 7.54688 447.708 7.54688C447.224 7.54688 446.848 7.69602 446.579 7.99432C446.311 8.2893 446.176 8.6688 446.176 9.13281V14H444.695V8.92401C444.695 8.50971 444.566 8.17661 444.307 7.92472C444.049 7.67282 443.712 7.54688 443.298 7.54688C443.016 7.54688 442.756 7.62145 442.517 7.7706C442.282 7.91643 442.092 8.12026 441.946 8.3821C441.803 8.64394 441.732 8.94721 441.732 9.2919V14H440.245Z" fill="black"/>
<path d="M46.9787 14H45.348L49.0121 3.81818H50.7869L54.451 14H52.8203L49.9418 5.66761H49.8622L46.9787 14ZM47.2521 10.0128H52.5419V11.3054H47.2521V10.0128ZM57.2885 3.81818V14H55.802V3.81818H57.2885ZM62.5795 14.1541C61.8272 14.1541 61.1792 13.9934 60.6357 13.6719C60.0954 13.3471 59.6778 12.8913 59.3828 12.3047C59.0911 11.7147 58.9453 11.0237 58.9453 10.2315C58.9453 9.44934 59.0911 8.75994 59.3828 8.16335C59.6778 7.56676 60.0888 7.10109 60.6158 6.76633C61.1461 6.43158 61.7659 6.2642 62.4751 6.2642C62.906 6.2642 63.3236 6.33546 63.728 6.47798C64.1323 6.6205 64.4953 6.84422 64.8168 7.14915C65.1383 7.45407 65.3918 7.85014 65.5774 8.33736C65.763 8.82126 65.8558 9.40956 65.8558 10.1023V10.6293H59.7855V9.51562H64.3991C64.3991 9.12453 64.3196 8.77817 64.1605 8.47656C64.0014 8.17164 63.7777 7.93134 63.4893 7.75568C63.2043 7.58002 62.8696 7.49219 62.4851 7.49219C62.0675 7.49219 61.7029 7.59493 61.3913 7.80043C61.0831 8.0026 60.8445 8.26776 60.6754 8.59588C60.5097 8.92069 60.4268 9.27367 60.4268 9.65483V10.5249C60.4268 11.0353 60.5163 11.4695 60.6953 11.8274C60.8776 12.1854 61.1312 12.4588 61.456 12.6477C61.7808 12.8333 62.1603 12.9261 62.5945 12.9261C62.8762 12.9261 63.133 12.8864 63.3651 12.8068C63.5971 12.724 63.7976 12.6013 63.9666 12.4389C64.1357 12.2765 64.2649 12.076 64.3544 11.8374L65.7614 12.0909C65.6487 12.5052 65.4465 12.8681 65.1548 13.1797C64.8665 13.4879 64.5036 13.7282 64.0661 13.9006C63.6319 14.0696 63.1364 14.1541 62.5795 14.1541ZM67.5051 14V6.36364H68.9419V7.5767H69.0215C69.1607 7.16572 69.406 6.84257 69.7573 6.60724C70.1119 6.36861 70.513 6.24929 70.9604 6.24929C71.0532 6.24929 71.1626 6.2526 71.2885 6.25923C71.4178 6.26586 71.5189 6.27415 71.5918 6.28409V7.70597C71.5321 7.68939 71.4261 7.67116 71.2736 7.65128C71.1212 7.62808 70.9687 7.61648 70.8162 7.61648C70.4649 7.61648 70.1517 7.69105 69.8766 7.8402C69.6048 7.98603 69.3894 8.18987 69.2303 8.4517C69.0712 8.71023 68.9917 9.00521 68.9917 9.33665V14H67.5051ZM76.894 6.36364V7.55682H72.7228V6.36364H76.894ZM73.8414 4.53409H75.3279V11.7578C75.3279 12.0462 75.371 12.2633 75.4572 12.4091C75.5434 12.5516 75.6544 12.6494 75.7903 12.7024C75.9295 12.7521 76.0803 12.777 76.2427 12.777C76.362 12.777 76.4664 12.7687 76.5559 12.7521C76.6454 12.7356 76.715 12.7223 76.7647 12.7124L77.0332 13.9403C76.947 13.9735 76.8244 14.0066 76.6653 14.0398C76.5062 14.0762 76.3074 14.0961 76.0687 14.0994C75.6776 14.1061 75.313 14.0365 74.975 13.8906C74.6369 13.7448 74.3635 13.5194 74.1547 13.2145C73.9458 12.9096 73.8414 12.5268 73.8414 12.0661V4.53409ZM78.5384 14V6.36364H80.0249V14H78.5384ZM79.2891 5.18537C79.0305 5.18537 78.8085 5.09919 78.6229 4.92685C78.4406 4.75118 78.3494 4.54238 78.3494 4.30043C78.3494 4.05516 78.4406 3.84635 78.6229 3.67401C78.8085 3.49834 79.0305 3.41051 79.2891 3.41051C79.5476 3.41051 79.768 3.49834 79.9503 3.67401C80.1359 3.84635 80.2287 4.05516 80.2287 4.30043C80.2287 4.54238 80.1359 4.75118 79.9503 4.92685C79.768 5.09919 79.5476 5.18537 79.2891 5.18537ZM83.5112 9.46591V14H82.0247V6.36364H83.4515V7.60653H83.546C83.7217 7.20218 83.9967 6.87737 84.3713 6.6321C84.7491 6.38684 85.2247 6.2642 85.7981 6.2642C86.3185 6.2642 86.7742 6.37358 87.1653 6.59233C87.5564 6.80777 87.8597 7.12926 88.0751 7.55682C88.2905 7.98437 88.3983 8.51302 88.3983 9.14276V14H86.9118V9.32173C86.9118 8.76823 86.7676 8.3357 86.4792 8.02415C86.1909 7.70928 85.7948 7.55185 85.291 7.55185C84.9463 7.55185 84.6397 7.62642 84.3713 7.77557C84.1061 7.92472 83.8957 8.14347 83.7399 8.43182C83.5874 8.71686 83.5112 9.06155 83.5112 9.46591ZM93.5936 17.0227C92.987 17.0227 92.465 16.9432 92.0275 16.7841C91.5933 16.625 91.2387 16.4145 90.9636 16.1527C90.6885 15.8909 90.483 15.6042 90.3471 15.2926L91.6248 14.7656C91.7143 14.9115 91.8336 15.0656 91.9828 15.228C92.1352 15.3937 92.3407 15.5346 92.5993 15.6506C92.8611 15.7666 93.1975 15.8246 93.6085 15.8246C94.1719 15.8246 94.6376 15.687 95.0055 15.4119C95.3734 15.1402 95.5574 14.706 95.5574 14.1094V12.608H95.4629C95.3734 12.7704 95.2441 12.951 95.0751 13.1499C94.9094 13.3487 94.6807 13.5211 94.389 13.6669C94.0974 13.8127 93.7179 13.8857 93.2505 13.8857C92.6473 13.8857 92.1038 13.7448 91.6199 13.4631C91.1393 13.178 90.7581 12.7588 90.4764 12.2053C90.198 11.6484 90.0588 10.964 90.0588 10.152C90.0588 9.33996 90.1963 8.64394 90.4714 8.06392C90.7498 7.4839 91.131 7.03977 91.6149 6.73153C92.0988 6.41998 92.6473 6.2642 93.2605 6.2642C93.7344 6.2642 94.1172 6.34375 94.4089 6.50284C94.7006 6.65862 94.9276 6.84091 95.09 7.04972C95.2557 7.25852 95.3833 7.44247 95.4728 7.60156H95.5822V6.36364H97.0389V14.169C97.0389 14.8253 96.8864 15.3639 96.5815 15.7848C96.2766 16.2057 95.8639 16.5173 95.3436 16.7195C94.8265 16.9216 94.2432 17.0227 93.5936 17.0227ZM93.5787 12.6527C94.0062 12.6527 94.3675 12.5533 94.6625 12.3544C94.9608 12.1522 95.1861 11.8639 95.3386 11.4893C95.4944 11.1115 95.5723 10.6591 95.5723 10.1321C95.5723 9.61837 95.496 9.16596 95.3436 8.77486C95.1911 8.38376 94.9674 8.07884 94.6724 7.86009C94.3774 7.63802 94.0128 7.52699 93.5787 7.52699C93.1312 7.52699 92.7583 7.64299 92.46 7.875C92.1618 8.10369 91.9364 8.41525 91.7839 8.80966C91.6348 9.20407 91.5602 9.64489 91.5602 10.1321C91.5602 10.6326 91.6364 11.0717 91.7889 11.4496C91.9413 11.8274 92.1667 12.1224 92.465 12.3345C92.7666 12.5466 93.1378 12.6527 93.5787 12.6527ZM102.738 14V6.36364H104.174V7.5767H104.254C104.393 7.16572 104.638 6.84257 104.99 6.60724C105.344 6.36861 105.745 6.24929 106.193 6.24929C106.286 6.24929 106.395 6.2526 106.521 6.25923C106.65 6.26586 106.751 6.27415 106.824 6.28409V7.70597C106.765 7.68939 106.658 7.67116 106.506 7.65128C106.354 7.62808 106.201 7.61648 106.049 7.61648C105.697 7.61648 105.384 7.69105 105.109 7.8402C104.837 7.98603 104.622 8.18987 104.463 8.4517C104.304 8.71023 104.224 9.00521 104.224 9.33665V14H102.738ZM112.948 10.8331V6.36364H114.439V14H112.978V12.6776H112.898C112.723 13.0852 112.441 13.425 112.053 13.6967C111.669 13.9652 111.19 14.0994 110.616 14.0994C110.126 14.0994 109.692 13.9917 109.314 13.7763C108.939 13.5575 108.644 13.2344 108.429 12.8068C108.217 12.3793 108.111 11.8506 108.111 11.2209V6.36364H109.597V11.0419C109.597 11.5623 109.741 11.9766 110.03 12.2848C110.318 12.593 110.693 12.7472 111.153 12.7472C111.432 12.7472 111.708 12.6776 111.983 12.5384C112.262 12.3991 112.492 12.1887 112.675 11.907C112.86 11.6252 112.951 11.2673 112.948 10.8331ZM117.923 3.81818V14H116.437V3.81818H117.923ZM123.214 14.1541C122.462 14.1541 121.814 13.9934 121.27 13.6719C120.73 13.3471 120.313 12.8913 120.018 12.3047C119.726 11.7147 119.58 11.0237 119.58 10.2315C119.58 9.44934 119.726 8.75994 120.018 8.16335C120.313 7.56676 120.724 7.10109 121.251 6.76633C121.781 6.43158 122.401 6.2642 123.11 6.2642C123.541 6.2642 123.958 6.33546 124.363 6.47798C124.767 6.6205 125.13 6.84422 125.452 7.14915C125.773 7.45407 126.027 7.85014 126.212 8.33736C126.398 8.82126 126.491 9.40956 126.491 10.1023V10.6293H120.42V9.51562H125.034C125.034 9.12453 124.954 8.77817 124.795 8.47656C124.636 8.17164 124.412 7.93134 124.124 7.75568C123.839 7.58002 123.504 7.49219 123.12 7.49219C122.702 7.49219 122.338 7.59493 122.026 7.80043C121.718 8.0026 121.479 8.26776 121.31 8.59588C121.144 8.92069 121.062 9.27367 121.062 9.65483V10.5249C121.062 11.0353 121.151 11.4695 121.33 11.8274C121.512 12.1854 121.766 12.4588 122.091 12.6477C122.416 12.8333 122.795 12.9261 123.229 12.9261C123.511 12.9261 123.768 12.8864 124 12.8068C124.232 12.724 124.432 12.6013 124.601 12.4389C124.77 12.2765 124.9 12.076 124.989 11.8374L126.396 12.0909C126.283 12.5052 126.081 12.8681 125.79 13.1797C125.501 13.4879 125.138 13.7282 124.701 13.9006C124.267 14.0696 123.771 14.1541 123.214 14.1541ZM133.862 8.22798L132.515 8.46662C132.459 8.29427 132.369 8.13021 132.246 7.97443C132.127 7.81865 131.965 7.69105 131.759 7.59162C131.554 7.49219 131.297 7.44247 130.989 7.44247C130.568 7.44247 130.216 7.53693 129.935 7.72585C129.653 7.91146 129.512 8.15175 129.512 8.44673C129.512 8.70194 129.607 8.90743 129.795 9.06321C129.984 9.21899 130.289 9.34659 130.71 9.44602L131.923 9.72443C132.626 9.88684 133.15 10.1371 133.494 10.4751C133.839 10.8132 134.011 11.2524 134.011 11.7926C134.011 12.25 133.879 12.6577 133.614 13.0156C133.352 13.3703 132.986 13.6487 132.515 13.8509C132.048 14.053 131.506 14.1541 130.889 14.1541C130.034 14.1541 129.336 13.9718 128.796 13.6072C128.256 13.2393 127.924 12.7173 127.802 12.0412L129.239 11.8224C129.328 12.197 129.512 12.4804 129.79 12.6726C130.069 12.8615 130.432 12.956 130.879 12.956C131.366 12.956 131.756 12.8549 132.048 12.6527C132.339 12.4472 132.485 12.197 132.485 11.902C132.485 11.6634 132.396 11.4628 132.217 11.3004C132.041 11.138 131.771 11.0154 131.406 10.9325L130.114 10.6491C129.401 10.4867 128.874 10.2282 128.533 9.87358C128.195 9.51894 128.026 9.06984 128.026 8.52628C128.026 8.07552 128.152 7.68111 128.403 7.34304C128.655 7.00497 129.003 6.74148 129.447 6.55256C129.892 6.36032 130.4 6.2642 130.974 6.2642C131.799 6.2642 132.449 6.44318 132.923 6.80114C133.397 7.15578 133.71 7.63139 133.862 8.22798Z" fill="black"/>
</svg>
