<svg width="1012" height="280" viewBox="0 0 1012 280" fill="none" xmlns="http://www.w3.org/2000/svg">
<path d="M522.111 98C549.544 98 572.037 120.79 572 148.493C571.963 176.649 549.544 199.099 521.521 199.099C494.161 199.061 472 176.271 472 148.115C472.037 120.563 494.603 98 522.111 98ZM506.956 115.725C507.583 118.862 506.956 121.81 506.034 124.72C505.407 126.723 504.485 128.651 503.969 130.692C503.084 134.055 502.088 137.419 501.72 140.821C501.204 145.734 503.084 150.08 506.329 154.389C501.056 153.255 496.263 152.234 491.395 151.176C491.432 151.667 491.395 151.856 491.432 152.008C492.833 156.241 495.341 159.793 498.143 163.195C498.438 163.535 499.102 163.724 499.618 163.724C514.515 163.762 529.375 163.762 544.271 163.724C544.751 163.724 545.341 163.648 545.636 163.346C548.844 159.944 551.277 156.052 552.789 151.138C547.332 152.234 542.133 153.255 536.97 154.275C538.003 152.197 539.22 150.345 539.883 148.342C542.206 141.463 541.248 134.811 537.892 128.538C535.201 123.511 532.693 118.484 534.057 112.437C531.218 115.31 530.112 118.938 529.411 122.717C528.711 126.421 528.342 130.163 527.789 133.942C527.715 133.829 527.605 133.753 527.605 133.64C527.531 133.262 527.494 132.846 527.457 132.468C527.125 126.308 525.945 120.374 523.475 114.743C522 111.417 520.378 108.015 521.889 104.047C520.857 104.614 519.935 105.143 519.271 105.937C517.28 108.28 516.469 111.039 516.285 114.1C516.1 116.708 515.842 119.354 515.4 121.924C514.883 124.607 514.109 127.253 512.339 129.747C511.675 124.342 511.602 119.089 506.956 115.725ZM545.341 168.372H498.659V176.649H545.341V168.372ZM507.914 180.882C507.878 187.761 514.773 192.901 523.254 192.523C530.296 192.22 536.528 186.551 536.012 180.882H507.914Z" fill="#E75225"/>
<rect x="0.5" y="208.5" width="172.191" height="59" rx="3.5" fill="white" stroke="black"/>
<rect x="4.42133" y="214.5" width="172.191" height="59" rx="3.5" fill="white" stroke="black"/>
<rect x="8.5" y="220.5" width="172.191" height="59" rx="3.5" fill="white" stroke="black"/>
<path d="M28.7525 254.227C27.7677 254.227 26.9036 253.993 26.1602 253.524C25.4216 253.055 24.8439 252.4 24.4272 251.557C24.0153 250.714 23.8093 249.729 23.8093 248.602C23.8093 247.466 24.0153 246.474 24.4272 245.626C24.8439 244.779 25.4216 244.121 26.1602 243.652C26.9036 243.183 27.7677 242.949 28.7525 242.949C29.7374 242.949 30.5991 243.183 31.3378 243.652C32.0811 244.121 32.6588 244.779 33.0707 245.626C33.4874 246.474 33.6957 247.466 33.6957 248.602C33.6957 249.729 33.4874 250.714 33.0707 251.557C32.6588 252.4 32.0811 253.055 31.3378 253.524C30.5991 253.993 29.7374 254.227 28.7525 254.227ZM28.7525 252.722C29.5006 252.722 30.1162 252.53 30.5991 252.146C31.0821 251.763 31.4396 251.259 31.6716 250.634C31.9036 250.009 32.0196 249.331 32.0196 248.602C32.0196 247.873 31.9036 247.194 31.6716 246.564C31.4396 245.934 31.0821 245.425 30.5991 245.037C30.1162 244.649 29.5006 244.455 28.7525 244.455C28.0044 244.455 27.3889 244.649 26.9059 245.037C26.423 245.425 26.0655 245.934 25.8335 246.564C25.6015 247.194 25.4855 247.873 25.4855 248.602C25.4855 249.331 25.6015 250.009 25.8335 250.634C26.0655 251.259 26.423 251.763 26.9059 252.146C27.3889 252.53 28.0044 252.722 28.7525 252.722ZM40.9986 243.091V244.511H35.3452V243.091H40.9986ZM36.9929 240.477H38.6691V250.875C38.6691 251.348 38.7377 251.704 38.875 251.94C39.0171 252.172 39.197 252.329 39.4148 252.409C39.6374 252.485 39.8717 252.523 40.1179 252.523C40.3026 252.523 40.4541 252.513 40.5725 252.494C40.6909 252.471 40.7856 252.452 40.8566 252.438L41.1975 253.943C41.0839 253.986 40.9252 254.028 40.7216 254.071C40.518 254.118 40.26 254.142 39.9475 254.142C39.474 254.142 39.01 254.04 38.5554 253.837C38.1056 253.633 37.7316 253.323 37.4333 252.906C37.1397 252.49 36.9929 251.964 36.9929 251.33V240.477ZM45.4304 247.438V254H43.7543V239.455H45.4304V244.795H45.5725C45.8282 244.232 46.2117 243.785 46.7231 243.453C47.2392 243.117 47.9257 242.949 48.7827 242.949C49.5261 242.949 50.1771 243.098 50.7358 243.396C51.2946 243.69 51.7278 244.142 52.0356 244.753C52.3481 245.359 52.5043 246.131 52.5043 247.068V254H50.8282V247.182C50.8282 246.315 50.6033 245.645 50.1535 245.172C49.7084 244.694 49.0905 244.455 48.2998 244.455C47.7505 244.455 47.2581 244.571 46.8225 244.803C46.3916 245.035 46.0507 245.373 45.7998 245.818C45.5535 246.263 45.4304 246.803 45.4304 247.438ZM60.1446 254.227C59.0934 254.227 58.1867 253.995 57.4244 253.531C56.6668 253.062 56.0821 252.409 55.6701 251.571C55.2629 250.728 55.0593 249.748 55.0593 248.631C55.0593 247.513 55.2629 246.528 55.6701 245.676C56.0821 244.819 56.655 244.152 57.3889 243.673C58.1275 243.19 58.9893 242.949 59.9741 242.949C60.5423 242.949 61.1034 243.044 61.6574 243.233C62.2113 243.422 62.7156 243.73 63.1701 244.156C63.6247 244.578 63.9869 245.136 64.2568 245.832C64.5267 246.528 64.6616 247.385 64.6616 248.403V249.114H56.2525V247.665H62.9571C62.9571 247.049 62.834 246.5 62.5878 246.017C62.3463 245.534 62.0006 245.153 61.5508 244.874C61.1058 244.594 60.5802 244.455 59.9741 244.455C59.3065 244.455 58.7289 244.62 58.2412 244.952C57.7582 245.278 57.3865 245.705 57.1261 246.23C56.8657 246.756 56.7355 247.319 56.7355 247.92V248.886C56.7355 249.71 56.8775 250.409 57.1616 250.982C57.4504 251.55 57.8505 251.983 58.3619 252.281C58.8733 252.575 59.4675 252.722 60.1446 252.722C60.5849 252.722 60.9826 252.66 61.3378 252.537C61.6976 252.409 62.0077 252.22 62.2682 251.969C62.5286 251.713 62.7298 251.396 62.8718 251.017L64.4912 251.472C64.3207 252.021 64.0343 252.504 63.6318 252.92C63.2293 253.332 62.7322 253.654 62.1403 253.886C61.5485 254.114 60.8832 254.227 60.1446 254.227ZM67.2113 254V243.091H68.8307V244.739H68.9443C69.1432 244.199 69.503 243.761 70.0238 243.425C70.5447 243.089 71.1318 242.92 71.7852 242.92C71.9083 242.92 72.0622 242.923 72.2468 242.928C72.4315 242.932 72.5712 242.939 72.6659 242.949V244.653C72.6091 244.639 72.4789 244.618 72.2753 244.589C72.0764 244.556 71.8657 244.54 71.6432 244.54C71.1129 244.54 70.6394 244.651 70.2227 244.874C69.8108 245.091 69.4841 245.394 69.2426 245.783C69.0058 246.166 68.8875 246.604 68.8875 247.097V254H67.2113ZM84.8516 254.227C83.8005 254.227 82.8937 253.995 82.1314 253.531C81.3739 253.062 80.7891 252.409 80.3772 251.571C79.97 250.728 79.7664 249.748 79.7664 248.631C79.7664 247.513 79.97 246.528 80.3772 245.676C80.7891 244.819 81.362 244.152 82.0959 243.673C82.8346 243.19 83.6963 242.949 84.6812 242.949C85.2493 242.949 85.8104 243.044 86.3644 243.233C86.9184 243.422 87.4226 243.73 87.8772 244.156C88.3317 244.578 88.6939 245.136 88.9638 245.832C89.2337 246.528 89.3687 247.385 89.3687 248.403V249.114H80.9596V247.665H87.6641C87.6641 247.049 87.541 246.5 87.2948 246.017C87.0533 245.534 86.7077 245.153 86.2579 244.874C85.8128 244.594 85.2872 244.455 84.6812 244.455C84.0135 244.455 83.4359 244.62 82.9482 244.952C82.4652 245.278 82.0936 245.705 81.8331 246.23C81.5727 246.756 81.4425 247.319 81.4425 247.92V248.886C81.4425 249.71 81.5846 250.409 81.8687 250.982C82.1575 251.55 82.5576 251.983 83.0689 252.281C83.5803 252.575 84.1745 252.722 84.8516 252.722C85.2919 252.722 85.6897 252.66 86.0448 252.537C86.4046 252.409 86.7148 252.22 86.9752 251.969C87.2356 251.713 87.4368 251.396 87.5789 251.017L89.1982 251.472C89.0277 252.021 88.7413 252.504 88.3388 252.92C87.9364 253.332 87.4392 253.654 86.8473 253.886C86.2555 254.114 85.5902 254.227 84.8516 254.227ZM92.8754 243.091L95.489 247.551L98.1027 243.091H100.034L96.5118 248.545L100.034 254H98.1027L95.489 249.767L92.8754 254H90.9436L94.4095 248.545L90.9436 243.091H92.8754ZM102.426 258.091V243.091H104.045V244.824H104.244C104.367 244.634 104.538 244.393 104.756 244.099C104.978 243.801 105.295 243.536 105.707 243.304C106.124 243.067 106.688 242.949 107.398 242.949C108.316 242.949 109.126 243.179 109.827 243.638C110.528 244.097 111.074 244.748 111.467 245.591C111.86 246.434 112.057 247.428 112.057 248.574C112.057 249.729 111.86 250.731 111.467 251.578C111.074 252.421 110.53 253.074 109.834 253.538C109.138 253.998 108.335 254.227 107.426 254.227C106.725 254.227 106.164 254.111 105.743 253.879C105.322 253.643 104.997 253.375 104.77 253.077C104.543 252.774 104.367 252.523 104.244 252.324H104.102V258.091H102.426ZM104.074 248.545C104.074 249.369 104.195 250.096 104.436 250.726C104.678 251.351 105.03 251.841 105.494 252.196C105.958 252.546 106.527 252.722 107.199 252.722C107.9 252.722 108.484 252.537 108.953 252.168C109.427 251.794 109.782 251.292 110.019 250.662C110.26 250.027 110.381 249.322 110.381 248.545C110.381 247.778 110.262 247.087 110.026 246.472C109.794 245.851 109.441 245.361 108.967 245.001C108.499 244.637 107.909 244.455 107.199 244.455C106.517 244.455 105.944 244.627 105.48 244.973C105.016 245.314 104.666 245.792 104.429 246.408C104.192 247.018 104.074 247.731 104.074 248.545ZM119.045 254.227C118.061 254.227 117.197 253.993 116.453 253.524C115.715 253.055 115.137 252.4 114.72 251.557C114.308 250.714 114.102 249.729 114.102 248.602C114.102 247.466 114.308 246.474 114.72 245.626C115.137 244.779 115.715 244.121 116.453 243.652C117.197 243.183 118.061 242.949 119.045 242.949C120.03 242.949 120.892 243.183 121.631 243.652C122.374 244.121 122.952 244.779 123.364 245.626C123.78 246.474 123.989 247.466 123.989 248.602C123.989 249.729 123.78 250.714 123.364 251.557C122.952 252.4 122.374 253.055 121.631 253.524C120.892 253.993 120.03 254.227 119.045 254.227ZM119.045 252.722C119.794 252.722 120.409 252.53 120.892 252.146C121.375 251.763 121.733 251.259 121.965 250.634C122.197 250.009 122.313 249.331 122.313 248.602C122.313 247.873 122.197 247.194 121.965 246.564C121.733 245.934 121.375 245.425 120.892 245.037C120.409 244.649 119.794 244.455 119.045 244.455C118.297 244.455 117.682 244.649 117.199 245.037C116.716 245.425 116.358 245.934 116.126 246.564C115.894 247.194 115.778 247.873 115.778 248.602C115.778 249.331 115.894 250.009 116.126 250.634C116.358 251.259 116.716 251.763 117.199 252.146C117.682 252.53 118.297 252.722 119.045 252.722ZM126.547 254V243.091H128.167V244.739H128.28C128.479 244.199 128.839 243.761 129.36 243.425C129.881 243.089 130.468 242.92 131.121 242.92C131.244 242.92 131.398 242.923 131.583 242.928C131.767 242.932 131.907 242.939 132.002 242.949V244.653C131.945 244.639 131.815 244.618 131.611 244.589C131.412 244.556 131.202 244.54 130.979 244.54C130.449 244.54 129.975 244.651 129.559 244.874C129.147 245.091 128.82 245.394 128.579 245.783C128.342 246.166 128.223 246.604 128.223 247.097V254H126.547ZM139.417 243.091V244.511H133.763V243.091H139.417ZM135.411 240.477H137.087V250.875C137.087 251.348 137.156 251.704 137.293 251.94C137.435 252.172 137.615 252.329 137.833 252.409C138.055 252.485 138.29 252.523 138.536 252.523C138.721 252.523 138.872 252.513 138.99 252.494C139.109 252.471 139.204 252.452 139.275 252.438L139.615 253.943C139.502 253.986 139.343 254.028 139.14 254.071C138.936 254.118 138.678 254.142 138.365 254.142C137.892 254.142 137.428 254.04 136.973 253.837C136.524 253.633 136.15 253.323 135.851 252.906C135.558 252.49 135.411 251.964 135.411 251.33V240.477ZM146.395 254.227C145.343 254.227 144.437 253.995 143.674 253.531C142.917 253.062 142.332 252.409 141.92 251.571C141.513 250.728 141.309 249.748 141.309 248.631C141.309 247.513 141.513 246.528 141.92 245.676C142.332 244.819 142.905 244.152 143.639 243.673C144.378 243.19 145.239 242.949 146.224 242.949C146.792 242.949 147.353 243.044 147.907 243.233C148.461 243.422 148.966 243.73 149.42 244.156C149.875 244.578 150.237 245.136 150.507 245.832C150.777 246.528 150.912 247.385 150.912 248.403V249.114H142.503V247.665H149.207C149.207 247.049 149.084 246.5 148.838 246.017C148.596 245.534 148.251 245.153 147.801 244.874C147.356 244.594 146.83 244.455 146.224 244.455C145.557 244.455 144.979 244.62 144.491 244.952C144.008 245.278 143.637 245.705 143.376 246.23C143.116 246.756 142.985 247.319 142.985 247.92V248.886C142.985 249.71 143.128 250.409 143.412 250.982C143.7 251.55 144.101 251.983 144.612 252.281C145.123 252.575 145.717 252.722 146.395 252.722C146.835 252.722 147.233 252.66 147.588 252.537C147.948 252.409 148.258 252.22 148.518 251.969C148.779 251.713 148.98 251.396 149.122 251.017L150.741 251.472C150.571 252.021 150.284 252.504 149.882 252.92C149.479 253.332 148.982 253.654 148.39 253.886C147.798 254.114 147.133 254.227 146.395 254.227ZM153.461 254V243.091H155.081V244.739H155.194C155.393 244.199 155.753 243.761 156.274 243.425C156.795 243.089 157.382 242.92 158.035 242.92C158.158 242.92 158.312 242.923 158.497 242.928C158.682 242.932 158.821 242.939 158.916 242.949V244.653C158.859 244.639 158.729 244.618 158.525 244.589C158.326 244.556 158.116 244.54 157.893 244.54C157.363 244.54 156.889 244.651 156.473 244.874C156.061 245.091 155.734 245.394 155.493 245.783C155.256 246.166 155.137 246.604 155.137 247.097V254H153.461ZM168.63 245.534L167.124 245.96C167.03 245.709 166.89 245.465 166.705 245.229C166.525 244.987 166.279 244.788 165.967 244.632C165.654 244.476 165.254 244.398 164.766 244.398C164.099 244.398 163.542 244.552 163.097 244.859C162.657 245.162 162.437 245.548 162.437 246.017C162.437 246.434 162.588 246.763 162.891 247.004C163.194 247.246 163.668 247.447 164.312 247.608L165.931 248.006C166.907 248.242 167.633 248.605 168.112 249.092C168.59 249.575 168.829 250.198 168.829 250.96C168.829 251.585 168.649 252.144 168.289 252.636C167.934 253.129 167.437 253.517 166.798 253.801C166.158 254.085 165.415 254.227 164.568 254.227C163.455 254.227 162.534 253.986 161.805 253.503C161.076 253.02 160.614 252.314 160.42 251.386L162.011 250.989C162.162 251.576 162.449 252.016 162.87 252.31C163.296 252.603 163.853 252.75 164.539 252.75C165.32 252.75 165.941 252.584 166.4 252.253C166.864 251.917 167.096 251.514 167.096 251.045C167.096 250.667 166.963 250.349 166.698 250.094C166.433 249.833 166.026 249.639 165.477 249.511L163.658 249.085C162.659 248.848 161.925 248.482 161.457 247.984C160.993 247.482 160.761 246.855 160.761 246.102C160.761 245.487 160.934 244.942 161.279 244.469C161.63 243.995 162.105 243.624 162.707 243.354C163.313 243.084 163.999 242.949 164.766 242.949C165.846 242.949 166.693 243.186 167.309 243.659C167.929 244.133 168.37 244.758 168.63 245.534Z" fill="black"/>
<rect x="0.5" y="108.5" width="172.191" height="59" rx="3.5" fill="white" stroke="black"/>
<rect x="4.42133" y="114.5" width="172.191" height="59" rx="3.5" fill="white" stroke="black"/>
<rect x="8.5" y="120.5" width="172.191" height="59" rx="3.5" fill="white" stroke="black"/>
<path d="M46.8207 158.091V143.091H48.44V144.824H48.6389C48.762 144.634 48.9325 144.393 49.1503 144.099C49.3728 143.801 49.69 143.536 50.102 143.304C50.5186 143.067 51.0821 142.949 51.7923 142.949C52.7109 142.949 53.5205 143.179 54.2213 143.638C54.922 144.097 55.4689 144.748 55.8619 145.591C56.2549 146.434 56.4514 147.428 56.4514 148.574C56.4514 149.729 56.2549 150.731 55.8619 151.578C55.4689 152.421 54.9244 153.074 54.2284 153.538C53.5324 153.998 52.7298 154.227 51.8207 154.227C51.12 154.227 50.5589 154.111 50.1375 153.879C49.7161 153.643 49.3917 153.375 49.1645 153.077C48.9372 152.774 48.762 152.523 48.6389 152.324H48.4968V158.091H46.8207ZM48.4684 148.545C48.4684 149.369 48.5892 150.096 48.8307 150.726C49.0721 151.351 49.4249 151.841 49.8889 152.196C50.3529 152.546 50.9211 152.722 51.5934 152.722C52.2942 152.722 52.879 152.537 53.3477 152.168C53.8212 151.794 54.1763 151.292 54.413 150.662C54.6545 150.027 54.7753 149.322 54.7753 148.545C54.7753 147.778 54.6569 147.087 54.4201 146.472C54.1881 145.851 53.8354 145.361 53.3619 145.001C52.8932 144.637 52.3037 144.455 51.5934 144.455C50.9116 144.455 50.3387 144.627 49.8747 144.973C49.4107 145.314 49.0603 145.792 48.8236 146.408C48.5868 147.018 48.4684 147.731 48.4684 148.545ZM63.4116 158.318C62.602 158.318 61.9059 158.214 61.3236 158.006C60.7412 157.802 60.2558 157.532 59.8676 157.196C59.4841 156.865 59.1787 156.509 58.9514 156.131L60.2866 155.193C60.4381 155.392 60.6299 155.619 60.8619 155.875C61.0939 156.135 61.4111 156.36 61.8136 156.55C62.2208 156.744 62.7535 156.841 63.4116 156.841C64.2923 156.841 65.0191 156.628 65.592 156.202C66.1649 155.776 66.4514 155.108 66.4514 154.199V151.983H66.3093C66.1862 152.182 66.0111 152.428 65.7838 152.722C65.5612 153.01 65.2393 153.268 64.8179 153.496C64.4012 153.718 63.8378 153.83 63.1275 153.83C62.2468 153.83 61.4561 153.621 60.7554 153.205C60.0593 152.788 59.5077 152.182 59.1005 151.386C58.6981 150.591 58.4968 149.625 58.4968 148.489C58.4968 147.371 58.6933 146.398 59.0863 145.57C59.4793 144.736 60.0262 144.092 60.727 143.638C61.4277 143.179 62.2374 142.949 63.1559 142.949C63.8662 142.949 64.4296 143.067 64.8463 143.304C65.2677 143.536 65.5897 143.801 65.8122 144.099C66.0395 144.393 66.2147 144.634 66.3378 144.824H66.5082V143.091H68.1275V154.312C68.1275 155.25 67.9145 156.012 67.4883 156.599C67.0669 157.191 66.4987 157.625 65.7838 157.899C65.0736 158.179 64.2828 158.318 63.4116 158.318ZM63.3548 152.324C64.0272 152.324 64.5953 152.17 65.0593 151.862C65.5234 151.554 65.8761 151.112 66.1176 150.534C66.3591 149.956 66.4798 149.265 66.4798 148.46C66.4798 147.674 66.3614 146.981 66.1247 146.379C65.8879 145.778 65.5376 145.307 65.0736 144.966C64.6095 144.625 64.0366 144.455 63.3548 144.455C62.6446 144.455 62.0527 144.634 61.5792 144.994C61.1105 145.354 60.7577 145.837 60.521 146.443C60.289 147.049 60.173 147.722 60.173 148.46C60.173 149.218 60.2914 149.888 60.5281 150.47C60.7696 151.048 61.1247 151.502 61.5934 151.834C62.0669 152.161 62.654 152.324 63.3548 152.324ZM77.4457 146.983V148.545H71.0821V146.983H77.4457ZM83.6052 154.256C82.9139 154.256 82.2865 154.125 81.7231 153.865C81.1596 153.6 80.7122 153.219 80.3807 152.722C80.0493 152.22 79.8836 151.614 79.8836 150.903C79.8836 150.278 80.0067 149.772 80.2529 149.384C80.4991 148.991 80.8282 148.683 81.2401 148.46C81.652 148.238 82.1066 148.072 82.6037 147.963C83.1056 147.849 83.6099 147.759 84.1165 147.693C84.7794 147.608 85.3168 147.544 85.7287 147.501C86.1454 147.454 86.4484 147.376 86.6378 147.267C86.832 147.158 86.929 146.969 86.929 146.699V146.642C86.929 145.941 86.7373 145.397 86.3537 145.009C85.975 144.62 85.3997 144.426 84.6279 144.426C83.8277 144.426 83.2003 144.601 82.7458 144.952C82.2912 145.302 81.9716 145.676 81.787 146.074L80.1961 145.506C80.4802 144.843 80.8589 144.327 81.3324 143.957C81.8107 143.583 82.3315 143.323 82.8949 143.176C83.4631 143.025 84.0218 142.949 84.5711 142.949C84.9214 142.949 85.3239 142.991 85.7785 143.077C86.2377 143.157 86.6804 143.325 87.1066 143.581C87.5374 143.837 87.8949 144.223 88.179 144.739C88.4631 145.255 88.6052 145.946 88.6052 146.812V154H86.929V152.523H86.8438C86.7302 152.759 86.5408 153.013 86.2756 153.283C86.0105 153.553 85.6577 153.782 85.2174 153.972C84.777 154.161 84.2396 154.256 83.6052 154.256ZM83.8608 152.75C84.5237 152.75 85.0824 152.62 85.537 152.359C85.9963 152.099 86.3419 151.763 86.5739 151.351C86.8107 150.939 86.929 150.506 86.929 150.051V148.517C86.858 148.602 86.7017 148.68 86.4603 148.751C86.2235 148.818 85.9489 148.877 85.6364 148.929C85.3286 148.976 85.028 149.019 84.7344 149.057C84.4456 149.09 84.2112 149.118 84.0313 149.142C83.5957 149.199 83.1885 149.291 82.8097 149.419C82.4357 149.542 82.1326 149.729 81.9006 149.98C81.6733 150.226 81.5597 150.562 81.5597 150.989C81.5597 151.571 81.7751 152.011 82.206 152.31C82.6416 152.603 83.1932 152.75 83.8608 152.75ZM96.0679 158.318C95.2582 158.318 94.5622 158.214 93.9798 158.006C93.3974 157.802 92.9121 157.532 92.5238 157.196C92.1403 156.865 91.8349 156.509 91.6076 156.131L92.9429 155.193C93.0944 155.392 93.2861 155.619 93.5182 155.875C93.7502 156.135 94.0674 156.36 94.4699 156.55C94.8771 156.744 95.4097 156.841 96.0679 156.841C96.9486 156.841 97.6754 156.628 98.2483 156.202C98.8212 155.776 99.1076 155.108 99.1076 154.199V151.983H98.9656C98.8425 152.182 98.6673 152.428 98.44 152.722C98.2175 153.01 97.8955 153.268 97.4741 153.496C97.0575 153.718 96.494 153.83 95.7838 153.83C94.9031 153.83 94.1124 153.621 93.4116 153.205C92.7156 152.788 92.164 152.182 91.7568 151.386C91.3543 150.591 91.1531 149.625 91.1531 148.489C91.1531 147.371 91.3496 146.398 91.7426 145.57C92.1356 144.736 92.6825 144.092 93.3832 143.638C94.084 143.179 94.8936 142.949 95.8122 142.949C96.5224 142.949 97.0859 143.067 97.5025 143.304C97.9239 143.536 98.2459 143.801 98.4684 144.099C98.6957 144.393 98.8709 144.634 98.994 144.824H99.1645V143.091H100.784V154.312C100.784 155.25 100.571 156.012 100.145 156.599C99.7232 157.191 99.155 157.625 98.44 157.899C97.7298 158.179 96.9391 158.318 96.0679 158.318ZM96.0111 152.324C96.6834 152.324 97.2516 152.17 97.7156 151.862C98.1796 151.554 98.5324 151.112 98.7738 150.534C99.0153 149.956 99.1361 149.265 99.1361 148.46C99.1361 147.674 99.0177 146.981 98.7809 146.379C98.5442 145.778 98.1938 145.307 97.7298 144.966C97.2658 144.625 96.6929 144.455 96.0111 144.455C95.3008 144.455 94.709 144.634 94.2355 144.994C93.7667 145.354 93.414 145.837 93.1772 146.443C92.9452 147.049 92.8292 147.722 92.8292 148.46C92.8292 149.218 92.9476 149.888 93.1843 150.47C93.4258 151.048 93.7809 151.502 94.2497 151.834C94.7232 152.161 95.3103 152.324 96.0111 152.324ZM108.426 154.227C107.375 154.227 106.468 153.995 105.706 153.531C104.948 153.062 104.363 152.409 103.951 151.571C103.544 150.728 103.341 149.748 103.341 148.631C103.341 147.513 103.544 146.528 103.951 145.676C104.363 144.819 104.936 144.152 105.67 143.673C106.409 143.19 107.271 142.949 108.255 142.949C108.824 142.949 109.385 143.044 109.939 143.233C110.493 143.422 110.997 143.73 111.451 144.156C111.906 144.578 112.268 145.136 112.538 145.832C112.808 146.528 112.943 147.385 112.943 148.403V149.114H104.534V147.665H111.238C111.238 147.049 111.115 146.5 110.869 146.017C110.628 145.534 110.282 145.153 109.832 144.874C109.387 144.594 108.861 144.455 108.255 144.455C107.588 144.455 107.01 144.62 106.522 144.952C106.039 145.278 105.668 145.705 105.407 146.23C105.147 146.756 105.017 147.319 105.017 147.92V148.886C105.017 149.71 105.159 150.409 105.443 150.982C105.732 151.55 106.132 151.983 106.643 152.281C107.155 152.575 107.749 152.722 108.426 152.722C108.866 152.722 109.264 152.66 109.619 152.537C109.979 152.409 110.289 152.22 110.549 151.969C110.81 151.713 111.011 151.396 111.153 151.017L112.772 151.472C112.602 152.021 112.316 152.504 111.913 152.92C111.511 153.332 111.013 153.654 110.422 153.886C109.83 154.114 109.164 154.227 108.426 154.227ZM117.169 147.438V154H115.493V143.091H117.112V144.795H117.254C117.51 144.241 117.898 143.796 118.419 143.46C118.94 143.119 119.612 142.949 120.436 142.949C121.174 142.949 121.821 143.1 122.375 143.403C122.929 143.702 123.36 144.156 123.667 144.767C123.975 145.373 124.129 146.14 124.129 147.068V154H122.453V147.182C122.453 146.325 122.23 145.657 121.785 145.179C121.34 144.696 120.729 144.455 119.953 144.455C119.418 144.455 118.94 144.571 118.518 144.803C118.101 145.035 117.772 145.373 117.531 145.818C117.289 146.263 117.169 146.803 117.169 147.438ZM131.936 143.091V144.511H126.283V143.091H131.936ZM127.93 140.477H129.607V150.875C129.607 151.348 129.675 151.704 129.813 151.94C129.955 152.172 130.135 152.329 130.352 152.409C130.575 152.485 130.809 152.523 131.055 152.523C131.24 152.523 131.392 152.513 131.51 152.494C131.628 152.471 131.723 152.452 131.794 152.438L132.135 153.943C132.021 153.986 131.863 154.028 131.659 154.071C131.456 154.118 131.197 154.142 130.885 154.142C130.412 154.142 129.947 154.04 129.493 153.837C129.043 153.633 128.669 153.323 128.371 152.906C128.077 152.49 127.93 151.964 127.93 151.33V140.477Z" fill="black"/>
<rect x="0.5" y="8.5" width="172.191" height="59" rx="3.5" fill="white" stroke="black"/>
<rect x="4.42133" y="14.5" width="172.191" height="59" rx="3.5" fill="white" stroke="black"/>
<rect x="8.5" y="19.5" width="172.191" height="59" rx="3.5" fill="white" stroke="black"/>
<path d="M43.9968 46.4375V53H42.3207V42.0909H43.94V43.7955H44.0821C44.3378 43.2415 44.726 42.7964 45.2468 42.4602C45.7677 42.1193 46.44 41.9489 47.2639 41.9489C48.0025 41.9489 48.6488 42.1004 49.2028 42.4034C49.7568 42.7017 50.1877 43.1562 50.4954 43.767C50.8032 44.3731 50.9571 45.1402 50.9571 46.0682V53H49.2809V46.1818C49.2809 45.3248 49.0584 44.6572 48.6133 44.179C48.1683 43.696 47.5575 43.4545 46.7809 43.4545C46.2459 43.4545 45.7677 43.5705 45.3463 43.8026C44.9296 44.0346 44.6005 44.3731 44.3591 44.8182C44.1176 45.2633 43.9968 45.803 43.9968 46.4375ZM58.4517 53.2273C57.4669 53.2273 56.6028 52.9929 55.8594 52.5241C55.1208 52.0554 54.5431 51.3996 54.1265 50.5568C53.7145 49.714 53.5086 48.7292 53.5086 47.6023C53.5086 46.4659 53.7145 45.474 54.1265 44.6264C54.5431 43.7789 55.1208 43.1207 55.8594 42.652C56.6028 42.1832 57.4669 41.9489 58.4517 41.9489C59.4366 41.9489 60.2983 42.1832 61.037 42.652C61.7803 43.1207 62.358 43.7789 62.7699 44.6264C63.1866 45.474 63.3949 46.4659 63.3949 47.6023C63.3949 48.7292 63.1866 49.714 62.7699 50.5568C62.358 51.3996 61.7803 52.0554 61.037 52.5241C60.2983 52.9929 59.4366 53.2273 58.4517 53.2273ZM58.4517 51.7216C59.1999 51.7216 59.8154 51.5298 60.2983 51.1463C60.7813 50.7628 61.1388 50.2585 61.3708 49.6335C61.6028 49.0085 61.7188 48.3314 61.7188 47.6023C61.7188 46.8731 61.6028 46.1937 61.3708 45.5639C61.1388 44.9342 60.7813 44.4252 60.2983 44.0369C59.8154 43.6487 59.1999 43.4545 58.4517 43.4545C57.7036 43.4545 57.0881 43.6487 56.6052 44.0369C56.1222 44.4252 55.7647 44.9342 55.5327 45.5639C55.3007 46.1937 55.1847 46.8731 55.1847 47.6023C55.1847 48.3314 55.3007 49.0085 55.5327 49.6335C55.7647 50.2585 56.1222 50.7628 56.6052 51.1463C57.0881 51.5298 57.7036 51.7216 58.4517 51.7216ZM70.0728 53.2273C69.1638 53.2273 68.3612 52.9976 67.6652 52.5384C66.9691 52.0743 66.4246 51.4209 66.0316 50.5781C65.6387 49.7306 65.4422 48.7292 65.4422 47.5739C65.4422 46.428 65.6387 45.4337 66.0316 44.5909C66.4246 43.7481 66.9715 43.0971 67.6723 42.6378C68.373 42.1785 69.1827 41.9489 70.1013 41.9489C70.8115 41.9489 71.3726 42.0672 71.7845 42.304C72.2012 42.536 72.5184 42.8011 72.7362 43.0994C72.9587 43.393 73.1316 43.6345 73.2547 43.8239H73.3967V38.4545H75.0728V53H73.4535V51.3239H73.2547C73.1316 51.5227 72.9564 51.7737 72.7291 52.0767C72.5018 52.375 72.1775 52.6425 71.7561 52.8793C71.3347 53.1113 70.7736 53.2273 70.0728 53.2273ZM70.3001 51.7216C70.9725 51.7216 71.5406 51.5464 72.0047 51.196C72.4687 50.8409 72.8214 50.3509 73.0629 49.7259C73.3044 49.0961 73.4251 48.3693 73.4251 47.5455C73.4251 46.7311 73.3067 46.0185 73.07 45.4077C72.8333 44.7921 72.4829 44.3139 72.0189 43.973C71.5549 43.6274 70.9819 43.4545 70.3001 43.4545C69.5899 43.4545 68.998 43.6368 68.5245 44.0014C68.0558 44.3613 67.7031 44.8513 67.4663 45.4716C67.2343 46.0871 67.1183 46.7784 67.1183 47.5455C67.1183 48.322 67.2367 49.0275 67.4734 49.6619C67.7149 50.2917 68.07 50.7936 68.5388 51.1676C69.0122 51.5369 69.5994 51.7216 70.3001 51.7216ZM82.9493 53.2273C81.8981 53.2273 80.9914 52.9953 80.2291 52.5312C79.4715 52.0625 78.8868 51.4091 78.4748 50.571C78.0676 49.7282 77.864 48.7481 77.864 47.6307C77.864 46.5133 78.0676 45.5284 78.4748 44.6761C78.8868 43.8191 79.4597 43.1515 80.1936 42.6733C80.9322 42.1903 81.794 41.9489 82.7788 41.9489C83.347 41.9489 83.9081 42.0436 84.462 42.233C85.016 42.4223 85.5203 42.7301 85.9748 43.1562C86.4294 43.5777 86.7916 44.1364 87.0615 44.8324C87.3314 45.5284 87.4663 46.3854 87.4663 47.4034V48.1136H79.0572V46.6648H85.7618C85.7618 46.0492 85.6387 45.5 85.3924 45.017C85.151 44.5341 84.8053 44.1529 84.3555 43.8736C83.9104 43.5942 83.3849 43.4545 82.7788 43.4545C82.1112 43.4545 81.5335 43.6203 81.0459 43.9517C80.5629 44.2784 80.1912 44.7045 79.9308 45.2301C79.6704 45.7557 79.5402 46.3191 79.5402 46.9205V47.8864C79.5402 48.7102 79.6822 49.4086 79.9663 49.9815C80.2551 50.5497 80.6552 50.983 81.1666 51.2812C81.678 51.5748 82.2722 51.7216 82.9493 51.7216C83.3896 51.7216 83.7873 51.66 84.1424 51.5369C84.5023 51.4091 84.8124 51.2197 85.0728 50.9688C85.3333 50.7131 85.5345 50.3958 85.6765 50.017L87.2959 50.4716C87.1254 51.0208 86.8389 51.5038 86.4365 51.9205C86.034 52.3324 85.5369 52.6544 84.945 52.8864C84.3531 53.1136 83.6879 53.2273 82.9493 53.2273ZM96.266 45.983V47.5455H89.9024V45.983H96.266ZM102.425 53.2557C101.734 53.2557 101.107 53.1255 100.543 52.8651C99.9799 52.5999 99.5325 52.2188 99.201 51.7216C98.8696 51.2197 98.7039 50.6136 98.7039 49.9034C98.7039 49.2784 98.827 48.7718 99.0732 48.3835C99.3194 47.9905 99.6485 47.6828 100.06 47.4602C100.472 47.2377 100.927 47.072 101.424 46.9631C101.926 46.8494 102.43 46.7595 102.937 46.6932C103.6 46.608 104.137 46.544 104.549 46.5014C104.966 46.4541 105.269 46.3759 105.458 46.267C105.652 46.1581 105.749 45.9687 105.749 45.6989V45.642C105.749 44.9413 105.558 44.3968 105.174 44.0085C104.795 43.6203 104.22 43.4261 103.448 43.4261C102.648 43.4261 102.021 43.6013 101.566 43.9517C101.112 44.3021 100.792 44.6761 100.607 45.0739L99.0164 44.5057C99.3005 43.8428 99.6793 43.3267 100.153 42.9574C100.631 42.5833 101.152 42.3229 101.715 42.1761C102.283 42.0246 102.842 41.9489 103.391 41.9489C103.742 41.9489 104.144 41.9915 104.599 42.0767C105.058 42.1572 105.501 42.3253 105.927 42.581C106.358 42.8366 106.715 43.2225 106.999 43.7386C107.283 44.2547 107.425 44.946 107.425 45.8125V53H105.749V51.5227H105.664C105.55 51.7595 105.361 52.0128 105.096 52.2827C104.831 52.5526 104.478 52.7822 104.038 52.9716C103.597 53.161 103.06 53.2557 102.425 53.2557ZM102.681 51.75C103.344 51.75 103.903 51.6198 104.357 51.3594C104.817 51.099 105.162 50.7628 105.394 50.3509C105.631 49.9389 105.749 49.5057 105.749 49.0511V47.517C105.678 47.6023 105.522 47.6804 105.281 47.7514C105.044 47.8177 104.769 47.8769 104.457 47.929C104.149 47.9763 103.848 48.0189 103.555 48.0568C103.266 48.09 103.032 48.1184 102.852 48.142C102.416 48.1989 102.009 48.2912 101.63 48.419C101.256 48.5421 100.953 48.7292 100.721 48.9801C100.494 49.2263 100.38 49.5625 100.38 49.9886C100.38 50.571 100.595 51.0114 101.026 51.3097C101.462 51.6032 102.014 51.75 102.681 51.75ZM114.888 57.3182C114.079 57.3182 113.383 57.214 112.8 57.0057C112.218 56.8021 111.732 56.5322 111.344 56.196C110.961 55.8646 110.655 55.5095 110.428 55.1307L111.763 54.1932C111.915 54.392 112.106 54.6193 112.338 54.875C112.57 55.1354 112.888 55.3603 113.29 55.5497C113.697 55.7438 114.23 55.8409 114.888 55.8409C115.769 55.8409 116.496 55.6278 117.069 55.2017C117.641 54.7756 117.928 54.108 117.928 53.1989V50.983H117.786C117.663 51.1818 117.488 51.428 117.26 51.7216C117.038 52.0104 116.716 52.2685 116.294 52.4957C115.878 52.7183 115.314 52.8295 114.604 52.8295C113.723 52.8295 112.933 52.6212 112.232 52.2045C111.536 51.7879 110.984 51.1818 110.577 50.3864C110.175 49.5909 109.973 48.625 109.973 47.4886C109.973 46.3712 110.17 45.3982 110.563 44.5696C110.956 43.7363 111.503 43.0923 112.204 42.6378C112.904 42.1785 113.714 41.9489 114.633 41.9489C115.343 41.9489 115.906 42.0672 116.323 42.304C116.744 42.536 117.066 42.8011 117.289 43.0994C117.516 43.393 117.691 43.6345 117.814 43.8239H117.985V42.0909H119.604V53.3125C119.604 54.25 119.391 55.0123 118.965 55.5994C118.543 56.1913 117.975 56.6245 117.26 56.8991C116.55 57.1785 115.759 57.3182 114.888 57.3182ZM114.831 51.3239C115.504 51.3239 116.072 51.17 116.536 50.8622C117 50.5545 117.353 50.1117 117.594 49.5341C117.836 48.9564 117.956 48.2652 117.956 47.4602C117.956 46.6742 117.838 45.9806 117.601 45.3793C117.365 44.7779 117.014 44.3068 116.55 43.9659C116.086 43.625 115.513 43.4545 114.831 43.4545C114.121 43.4545 113.529 43.6345 113.056 43.9943C112.587 44.3542 112.234 44.8371 111.998 45.4432C111.766 46.0492 111.65 46.7216 111.65 47.4602C111.65 48.2178 111.768 48.8878 112.005 49.4702C112.246 50.0478 112.601 50.5024 113.07 50.8338C113.543 51.1605 114.131 51.3239 114.831 51.3239ZM127.246 53.2273C126.195 53.2273 125.288 52.9953 124.526 52.5312C123.768 52.0625 123.184 51.4091 122.772 50.571C122.365 49.7282 122.161 48.7481 122.161 47.6307C122.161 46.5133 122.365 45.5284 122.772 44.6761C123.184 43.8191 123.757 43.1515 124.49 42.6733C125.229 42.1903 126.091 41.9489 127.076 41.9489C127.644 41.9489 128.205 42.0436 128.759 42.233C129.313 42.4223 129.817 42.7301 130.272 43.1562C130.726 43.5777 131.088 44.1364 131.358 44.8324C131.628 45.5284 131.763 46.3854 131.763 47.4034V48.1136H123.354V46.6648H130.059C130.059 46.0492 129.936 45.5 129.689 45.017C129.448 44.5341 129.102 44.1529 128.652 43.8736C128.207 43.5942 127.682 43.4545 127.076 43.4545C126.408 43.4545 125.83 43.6203 125.343 43.9517C124.86 44.2784 124.488 44.7045 124.228 45.2301C123.967 45.7557 123.837 46.3191 123.837 46.9205V47.8864C123.837 48.7102 123.979 49.4086 124.263 49.9815C124.552 50.5497 124.952 50.983 125.463 51.2812C125.975 51.5748 126.569 51.7216 127.246 51.7216C127.686 51.7216 128.084 51.66 128.439 51.5369C128.799 51.4091 129.109 51.2197 129.37 50.9688C129.63 50.7131 129.831 50.3958 129.973 50.017L131.593 50.4716C131.422 51.0208 131.136 51.5038 130.733 51.9205C130.331 52.3324 129.834 52.6544 129.242 52.8864C128.65 53.1136 127.985 53.2273 127.246 53.2273ZM135.989 46.4375V53H134.313V42.0909H135.932V43.7955H136.074C136.33 43.2415 136.718 42.7964 137.239 42.4602C137.76 42.1193 138.432 41.9489 139.256 41.9489C139.995 41.9489 140.641 42.1004 141.195 42.4034C141.749 42.7017 142.18 43.1562 142.488 43.767C142.795 44.3731 142.949 45.1402 142.949 46.0682V53H141.273V46.1818C141.273 45.3248 141.051 44.6572 140.606 44.179C140.16 43.696 139.55 43.4545 138.773 43.4545C138.238 43.4545 137.76 43.5705 137.338 43.8026C136.922 44.0346 136.593 44.3731 136.351 44.8182C136.11 45.2633 135.989 45.803 135.989 46.4375ZM150.756 42.0909V43.5114H145.103V42.0909H150.756ZM146.751 39.4773H148.427V49.875C148.427 50.3485 148.496 50.7036 148.633 50.9403C148.775 51.1723 148.955 51.3286 149.173 51.4091C149.395 51.4848 149.63 51.5227 149.876 51.5227C150.06 51.5227 150.212 51.5133 150.33 51.4943C150.449 51.4706 150.543 51.4517 150.614 51.4375L150.955 52.9432C150.842 52.9858 150.683 53.0284 150.479 53.071C150.276 53.1184 150.018 53.142 149.705 53.142C149.232 53.142 148.768 53.0402 148.313 52.8366C147.863 52.633 147.489 52.3229 147.191 51.9062C146.898 51.4896 146.751 50.964 146.751 50.3295V39.4773Z" fill="black"/>
<path d="M472 114L463.499 106.185L460.982 117.455L472 114ZM180.782 49.9759L462.998 113.014L463.434 111.062L181.218 48.0241L180.782 49.9759Z" fill="black" fill-opacity="0.7"/>
<path d="M466 150L456.061 144.122L455.94 155.668L466 150ZM180.989 148L456.99 150.905L457.011 148.905L181.011 146L180.989 148Z" fill="black" fill-opacity="0.7"/>
<path d="M472 180L460.927 176.725L463.628 187.952L472 180ZM181.234 250.972L463.483 183.077L463.016 181.133L180.766 249.028L181.234 250.972Z" fill="black" fill-opacity="0.7"/>
<path d="M912 53L900.981 49.547L903.5 60.8159L912 53ZM572.218 129.976L903.435 55.9392L902.999 53.9874L571.782 128.024L572.218 129.976Z" fill="black" fill-opacity="0.7"/>
<path d="M912 214L902.864 206.938L901.316 218.381L912 214ZM571.866 168.991L902.947 213.784L903.215 211.802L572.134 167.009L571.866 168.991Z" fill="black" fill-opacity="0.7"/>
<g clip-path="url(#clip0_106_52)">
<path d="M1011.92 99.9231H912V0H1011.92V99.9231Z" fill="#4CB748"/>
<path d="M923.646 62.6308C923.646 61.2616 924.077 60.1693 924.954 59.3231C925.831 58.4462 926.954 58.0154 928.308 58.0154C929.677 58.0154 930.8 58.4462 931.662 59.3231C932.538 60.1539 932.969 61.2616 932.969 62.6308C932.969 64.0001 932.538 65.1231 931.662 65.9847C930.785 66.8154 929.662 67.2308 928.308 67.2308C926.938 67.2308 925.815 66.8154 924.954 65.9847C924.077 65.1231 923.646 64.0001 923.646 62.6308ZM923.646 39.4001C923.646 38.0308 924.077 36.9385 924.954 36.0924C925.831 35.2154 926.954 34.7847 928.308 34.7847C929.677 34.7847 930.8 35.2154 931.662 36.0924C932.538 36.9231 932.969 38.0308 932.969 39.4001C932.969 40.7693 932.538 41.8924 931.662 42.7539C930.785 43.5847 929.662 44.0001 928.308 44.0001C926.938 44.0001 925.815 43.5847 924.954 42.7539C924.077 41.877 923.646 40.7693 923.646 39.4001Z" fill="white"/>
<path d="M960.092 52.4462C958.908 52.4462 957.892 52.277 957.015 51.9385C956.138 51.5539 955.369 51.1077 954.677 50.5693C954.031 50.0001 953.446 49.3847 952.908 48.7539C952.415 48.1077 951.923 47.5231 951.431 46.9847C950.969 46.4154 950.477 45.9539 949.954 45.6154C949.462 45.2308 948.892 45.0462 948.246 45.0462C946.462 45.0462 945.569 46.0924 945.569 48.1847V52.1693H940.723V48.1847C940.723 45.9385 941.385 44.1539 942.723 42.8308C944.092 41.4616 945.892 40.7847 948.138 40.7847C949.323 40.7847 950.338 40.9693 951.215 41.3539C952.092 41.6924 952.846 42.1539 953.492 42.7231C954.169 43.2616 954.769 43.8462 955.262 44.4924C955.8 45.1385 956.292 45.7385 956.738 46.3077C957.231 46.8462 957.723 47.2924 958.215 47.677C958.754 48.0154 959.338 48.1847 959.985 48.1847C961.769 48.1847 962.662 47.1385 962.662 45.0462V41.0616H967.508V45.0462C967.508 47.2462 966.831 49.0308 965.462 50.4001C964.123 51.7539 962.338 52.4462 960.092 52.4462Z" fill="white"/>
<path d="M993.431 55.2921L991.323 66.6768H987.338L989.446 55.2921H980.338L978.231 66.6768H974.246L976.354 55.2921H971.508V51.5844H977.031L979.077 40.7691H973.431V37.0614H979.754L981.862 25.6768H985.846L983.738 37.0614H992.846L994.954 25.6768H998.938L996.831 37.0614H1001.68V40.7691H996.154L994.108 51.5844H999.692V55.2921H993.431ZM990.123 51.5844L992.169 40.7691H983.062L981.015 51.5844H990.123Z" fill="white"/>
</g>
<path d="M1001.84 218.132C1001.66 216.452 1001.36 214.523 1000.76 212.375C1000.16 210.253 999.265 207.912 997.948 205.488C996.631 203.063 994.924 200.556 992.709 198.105C991.841 197.14 990.883 196.204 989.865 195.295C991.392 189.702 988.009 184.854 988.009 184.854C982.171 184.523 978.459 186.534 977.082 187.444C976.842 187.361 976.633 187.251 976.393 187.168C975.406 186.81 974.388 186.452 973.31 186.149C972.262 185.846 971.184 185.57 970.077 185.322C968.969 185.074 967.861 184.882 966.724 184.716C966.514 184.689 966.335 184.661 966.125 184.634C963.58 177.14 956.276 174 956.276 174C948.103 178.766 946.576 185.433 946.576 185.433C946.576 185.433 946.546 185.57 946.486 185.818C946.037 185.928 945.588 186.066 945.139 186.176C944.511 186.342 943.882 186.562 943.283 186.782C942.654 187.003 942.056 187.223 941.427 187.471C940.2 187.967 938.972 188.518 937.775 189.124C936.607 189.73 935.47 190.391 934.362 191.08C934.212 191.025 934.063 190.97 934.063 190.97C922.746 187.003 912.717 191.769 912.717 191.769C911.789 202.843 917.238 209.813 918.316 211.08C918.046 211.769 917.807 212.457 917.567 213.146C916.729 215.653 916.1 218.215 915.711 220.887C915.651 221.273 915.591 221.658 915.561 222.044C905.084 226.81 902 236.534 902 236.534C910.712 245.763 920.89 246.342 920.89 246.342L920.92 246.314C922.207 248.435 923.704 250.446 925.381 252.347C926.099 253.146 926.818 253.89 927.596 254.634C924.423 263.008 928.045 269.95 928.045 269.95C937.745 270.281 944.121 266.039 945.469 265.074C946.427 265.377 947.414 265.653 948.402 265.873C951.396 266.59 954.45 267.003 957.503 267.113C958.252 267.141 959.03 267.168 959.778 267.14H960.138H960.377H960.856L961.335 267.113V267.14C965.915 273.146 973.939 274 973.939 274C979.657 268.463 979.986 262.953 979.986 261.769C979.986 261.769 979.986 261.741 979.986 261.686C979.986 261.576 979.986 261.521 979.986 261.521C979.986 261.438 979.986 261.355 979.986 261.273C981.183 260.501 982.321 259.675 983.399 258.766C985.674 256.865 987.68 254.689 989.356 252.347C989.506 252.127 989.656 251.906 989.805 251.686C996.272 252.017 1000.85 247.994 1000.85 247.994C999.774 241.796 995.942 238.766 995.134 238.187C995.134 238.187 995.104 238.16 995.044 238.132C994.984 238.105 994.984 238.077 994.984 238.077C994.954 238.05 994.895 238.022 994.835 237.994C994.865 237.609 994.894 237.251 994.924 236.865C994.984 236.204 994.984 235.515 994.984 234.854V234.358V234.11V233.972C994.984 233.807 994.984 233.862 994.984 233.807L994.954 233.394L994.924 232.843C994.924 232.65 994.894 232.485 994.865 232.32C994.835 232.154 994.835 231.961 994.805 231.796L994.745 231.273L994.655 230.749C994.535 230.061 994.416 229.399 994.236 228.711C993.547 226.039 992.41 223.504 990.943 221.218C989.446 218.931 987.59 216.92 985.464 215.212C983.369 213.504 981.004 212.127 978.549 211.107C976.064 210.088 973.49 209.427 970.915 209.124C969.628 208.959 968.34 208.904 967.053 208.931H966.574H966.454C966.424 208.931 966.275 208.931 966.305 208.931H966.095L965.616 208.959C965.436 208.959 965.257 208.986 965.107 208.986C964.449 209.041 963.79 209.124 963.161 209.234C960.587 209.675 958.162 210.529 956.036 211.714C953.911 212.898 952.055 214.358 950.558 216.011C949.061 217.664 947.893 219.51 947.085 221.41C946.277 223.311 945.828 225.295 945.708 227.196C945.678 227.664 945.678 228.16 945.678 228.628C945.678 228.738 945.678 228.876 945.678 228.986L945.708 229.372C945.738 229.592 945.738 229.84 945.768 230.061C945.858 231.025 946.067 231.961 946.337 232.843C946.905 234.634 947.804 236.259 948.911 237.636C950.019 239.014 951.366 240.143 952.773 241.052C954.18 241.934 955.707 242.567 957.204 242.981C958.701 243.394 960.198 243.559 961.605 243.559C961.784 243.559 961.964 243.559 962.113 243.559C962.203 243.559 962.293 243.559 962.383 243.559C962.473 243.559 962.563 243.559 962.652 243.532C962.802 243.532 962.952 243.504 963.101 243.504C963.131 243.504 963.191 243.504 963.221 243.477L963.371 243.449C963.461 243.449 963.55 243.421 963.64 243.421C963.82 243.394 963.97 243.366 964.149 243.339C964.329 243.311 964.479 243.284 964.628 243.229C964.958 243.174 965.257 243.063 965.556 242.981C966.155 242.788 966.754 242.567 967.263 242.32C967.802 242.072 968.281 241.769 968.76 241.493C968.879 241.41 969.029 241.328 969.149 241.218C969.628 240.86 969.717 240.198 969.328 239.758C968.999 239.372 968.4 239.262 967.921 239.51C967.802 239.565 967.682 239.62 967.562 239.675C967.143 239.868 966.724 240.033 966.275 240.171C965.826 240.309 965.347 240.419 964.868 240.501C964.628 240.529 964.389 240.556 964.119 240.584C964 240.584 963.88 240.612 963.73 240.612C963.61 240.612 963.461 240.612 963.371 240.612C963.251 240.612 963.131 240.612 963.012 240.612C962.862 240.612 962.712 240.612 962.563 240.584C962.563 240.584 962.473 240.584 962.533 240.584H962.473H962.383C962.323 240.584 962.233 240.584 962.173 240.556C962.024 240.529 961.904 240.529 961.754 240.501C960.647 240.364 959.539 240.061 958.491 239.62C957.413 239.179 956.396 238.573 955.467 237.802C954.539 237.03 953.731 236.121 953.102 235.074C952.474 234.028 952.025 232.871 951.815 231.658C951.725 231.052 951.665 230.419 951.695 229.813C951.695 229.647 951.725 229.482 951.725 229.317C951.725 229.372 951.725 229.289 951.725 229.289V229.234V229.096C951.725 229.014 951.755 228.931 951.755 228.848C951.785 228.518 951.845 228.187 951.905 227.857C952.414 225.212 953.851 222.623 956.066 220.667C956.635 220.171 957.234 219.73 957.862 219.317C958.491 218.904 959.18 218.545 959.898 218.242C960.617 217.939 961.335 217.691 962.113 217.499C962.862 217.306 963.64 217.196 964.449 217.113C964.838 217.085 965.227 217.058 965.646 217.058C965.766 217.058 965.826 217.058 965.915 217.058H966.245H966.454C966.544 217.058 966.454 217.058 966.484 217.058H966.574L966.903 217.085C967.772 217.14 968.61 217.251 969.448 217.444C971.125 217.774 972.771 218.353 974.298 219.124C977.351 220.694 979.956 223.118 981.543 226.039C982.351 227.499 982.92 229.069 983.189 230.694C983.249 231.107 983.309 231.521 983.339 231.934L983.369 232.237L983.399 232.54C983.399 232.65 983.399 232.76 983.399 232.843C983.399 232.953 983.399 233.063 983.399 233.146V233.421V233.725C983.399 233.917 983.369 234.248 983.369 234.441C983.339 234.882 983.279 235.35 983.219 235.791C983.159 236.231 983.069 236.672 982.98 237.113C982.89 237.554 982.77 237.994 982.65 238.408C982.411 239.262 982.111 240.116 981.752 240.97C981.034 242.623 980.076 244.22 978.938 245.68C976.633 248.601 973.49 250.97 969.897 252.485C968.101 253.229 966.215 253.78 964.269 254.055C963.311 254.22 962.323 254.303 961.335 254.331H961.156H961.006H960.677H960.198H959.958C960.078 254.331 959.928 254.331 959.928 254.331H959.838C959.299 254.331 958.79 254.303 958.252 254.248C956.156 254.11 954.09 253.752 952.055 253.229C950.049 252.705 948.103 251.961 946.247 251.08C942.565 249.262 939.242 246.782 936.667 243.78C935.38 242.292 934.242 240.667 933.314 238.986C932.386 237.306 931.638 235.515 931.099 233.725C930.56 231.906 930.231 230.061 930.081 228.187L930.051 227.829V227.747V227.664V227.499V227.196V227.113V227.003V226.782V226.342V226.259C930.051 226.259 930.051 226.287 930.051 226.231V226.066C930.051 225.846 930.051 225.598 930.051 225.377C930.081 224.468 930.171 223.504 930.29 222.567C930.41 221.631 930.59 220.667 930.799 219.73C931.009 218.793 931.248 217.857 931.548 216.92C932.117 215.074 932.835 213.284 933.673 211.603C935.38 208.242 937.595 205.24 940.259 202.843C940.918 202.237 941.607 201.686 942.325 201.135C943.044 200.612 943.792 200.116 944.57 199.647C945.319 199.179 946.127 198.766 946.935 198.38C947.325 198.187 947.744 197.994 948.163 197.829C948.372 197.747 948.582 197.664 948.792 197.581C949.001 197.499 949.211 197.416 949.42 197.333C950.258 197.003 951.127 196.727 952.025 196.479C952.234 196.424 952.474 196.369 952.683 196.287C952.893 196.231 953.132 196.176 953.342 196.121C953.791 196.011 954.24 195.901 954.689 195.818C954.899 195.763 955.138 195.736 955.378 195.68C955.617 195.625 955.827 195.598 956.066 195.543C956.306 195.515 956.515 195.46 956.755 195.433L957.084 195.377L957.443 195.322C957.683 195.295 957.892 195.267 958.132 195.24C958.401 195.212 958.641 195.185 958.91 195.157C959.12 195.129 959.479 195.102 959.689 195.074C959.838 195.047 960.018 195.047 960.168 195.019L960.497 194.992L960.647 194.964H960.826C961.096 194.937 961.335 194.937 961.605 194.909L961.994 194.882C961.994 194.882 962.143 194.882 962.024 194.882H962.113H962.293C962.503 194.882 962.742 194.854 962.952 194.854C963.82 194.826 964.718 194.826 965.586 194.854C967.323 194.909 969.029 195.102 970.675 195.377C973.998 195.956 977.112 196.92 979.956 198.215C982.8 199.482 985.315 201.052 987.53 202.76C987.68 202.871 987.799 202.981 987.949 203.091C988.069 203.201 988.219 203.311 988.338 203.421C988.608 203.642 988.847 203.862 989.117 204.083C989.386 204.303 989.626 204.523 989.865 204.744C990.105 204.964 990.344 205.185 990.584 205.433C991.512 206.342 992.38 207.251 993.158 208.187C994.715 210.033 995.972 211.906 996.96 213.669C997.02 213.78 997.08 213.89 997.14 214C997.2 214.11 997.26 214.22 997.319 214.331C997.439 214.551 997.559 214.771 997.649 214.992C997.768 215.212 997.858 215.405 997.978 215.625C998.068 215.846 998.188 216.039 998.277 216.259C998.637 217.085 998.996 217.884 999.265 218.628C999.714 219.84 1000.04 220.915 1000.31 221.851C1000.4 222.237 1000.79 222.485 1001.21 222.43C1001.66 222.402 1001.99 222.072 1001.99 221.658C1002.02 220.667 1001.99 219.482 1001.84 218.132Z" fill="url(#paint0_linear_106_52)"/>
<defs>
<linearGradient id="paint0_linear_106_52" x1="951.995" y1="296.45" x2="951.995" y2="205.139" gradientUnits="userSpaceOnUse">
<stop stop-color="#FFF100"/>
<stop offset="1" stop-color="#F05A28"/>
</linearGradient>
<clipPath id="clip0_106_52">
<rect x="912" width="100" height="100" rx="8" fill="white"/>
</clipPath>
</defs>
</svg>
